<svg width="44" height="35" viewBox="0 0 44 35" fill="none" xmlns="http://www.w3.org/2000/svg">
    <path d="M4 11.6447H24.9851V10.1447H4V11.6447ZM1.75 25.8847V13.8947H0.25V25.8847H1.75ZM24.9851 28.1347H4V29.6347H24.9851V28.1347ZM27.2351 13.8947V25.8847H28.7351V13.8947H27.2351ZM7.72761 29.6349C9.08854 29.6349 9.72808 31.317 8.7109 32.2211L9.70745 33.3423C11.7555 31.5218 10.4678 28.1349 7.72761 28.1349V29.6349ZM4.74756 31.1149C4.74756 33.6863 7.78561 35.0506 9.70745 33.3423L8.7109 32.2211C7.75642 33.0696 6.24756 32.392 6.24756 31.1149H4.74756ZM6.24756 31.1149C6.24756 30.2975 6.9102 29.6349 7.72761 29.6349V28.1349C6.08177 28.1349 4.74756 29.4691 4.74756 31.1149H6.24756ZM24.9851 29.6347C27.0562 29.6347 28.7351 27.9558 28.7351 25.8847H27.2351C27.2351 27.1274 26.2278 28.1347 24.9851 28.1347V29.6347ZM0.25 25.8847C0.25 27.9558 1.92893 29.6347 4 29.6347V28.1347C2.75736 28.1347 1.75 27.1274 1.75 25.8847H0.25ZM24.9851 11.6447C26.2278 11.6447 27.2351 12.652 27.2351 13.8947H28.7351C28.7351 11.8236 27.0562 10.1447 24.9851 10.1447V11.6447ZM4 10.1447C1.92893 10.1447 0.25 11.8236 0.25 13.8947H1.75C1.75 12.652 2.75736 11.6447 4 11.6447V10.1447Z" fill="#438DFC"/>
    <path d="M39.3774 1.75H18.3923V0.25H39.3774V1.75ZM41.6274 15.9901V4H43.1274V15.9901H41.6274ZM18.3923 18.2401H39.3774V19.7401H18.3923V18.2401ZM16.1423 4V15.9901H14.6423V4H16.1423ZM35.6498 19.7402C34.2889 19.7402 33.6494 21.4223 34.6665 22.3265L33.67 23.4476C31.6219 21.6271 32.9096 18.2402 35.6498 18.2402V19.7402ZM38.6299 21.2203C38.6299 23.7916 35.5918 25.1559 33.67 23.4476L34.6665 22.3265C35.621 23.1749 37.1299 22.4973 37.1299 21.2203H38.6299ZM37.1299 21.2203C37.1299 20.4029 36.4672 19.7402 35.6498 19.7402V18.2402C37.2957 18.2402 38.6299 19.5744 38.6299 21.2203H37.1299ZM18.3923 19.7401C16.3213 19.7401 14.6423 18.0611 14.6423 15.9901H16.1423C16.1423 17.2327 17.1497 18.2401 18.3923 18.2401V19.7401ZM43.1274 15.9901C43.1274 18.0611 41.4485 19.7401 39.3774 19.7401V18.2401C40.6201 18.2401 41.6274 17.2327 41.6274 15.9901H43.1274ZM18.3923 1.75C17.1497 1.75 16.1423 2.75736 16.1423 4H14.6423C14.6423 1.92893 16.3213 0.25 18.3923 0.25V1.75ZM39.3774 0.25C41.4485 0.25 43.1274 1.92894 43.1274 4H41.6274C41.6274 2.75736 40.6201 1.75 39.3774 1.75V0.25Z" fill="#438DFC"/>
</svg>
