<svg width="29" height="32" viewBox="0 0 29 32" fill="none" xmlns="http://www.w3.org/2000/svg">
    <path d="M17.7117 28.8638L17.1814 28.3335L17.7117 28.8638ZM16.614 29.9615L16.0837 29.4312L16.614 29.9615ZM11.2736 28.8638L11.804 28.3335L11.2736 28.8638ZM4 1.75H24.9851V0.25H4V1.75ZM1.75 24.9851V4H0.25V24.9851H1.75ZM9.15231 27.2351H4V28.7351H9.15231V27.2351ZM12.9017 29.4312L11.804 28.3335L10.7433 29.3941L11.841 30.4918L12.9017 29.4312ZM17.1814 28.3335L16.0837 29.4312L17.1443 30.4918L18.2421 29.3941L17.1814 28.3335ZM24.9851 27.2351H19.833V28.7351H24.9851V27.2351ZM27.2351 4V24.9851H28.7351V4H27.2351ZM24.9851 28.7351C27.0562 28.7351 28.7351 27.0562 28.7351 24.9851H27.2351C27.2351 26.2278 26.2278 27.2351 24.9851 27.2351V28.7351ZM18.2421 29.3941C18.664 28.9722 19.2363 28.7351 19.833 28.7351V27.2351C18.8385 27.2351 17.8847 27.6302 17.1814 28.3335L18.2421 29.3941ZM11.841 30.4918C13.3055 31.9563 15.6799 31.9563 17.1443 30.4918L16.0837 29.4312C15.205 30.3099 13.7804 30.3099 12.9017 29.4312L11.841 30.4918ZM9.15231 28.7351C9.74905 28.7351 10.3213 28.9722 10.7433 29.3941L11.804 28.3335C11.1007 27.6302 10.1469 27.2351 9.15231 27.2351V28.7351ZM0.25 24.9851C0.25 27.0562 1.92893 28.7351 4 28.7351V27.2351C2.75736 27.2351 1.75 26.2278 1.75 24.9851H0.25ZM24.9851 1.75C26.2278 1.75 27.2351 2.75736 27.2351 4H28.7351C28.7351 1.92893 27.0562 0.25 24.9851 0.25V1.75ZM4 0.25C1.92893 0.25 0.25 1.92893 0.25 4H1.75C1.75 2.75736 2.75736 1.75 4 1.75V0.25Z" fill="#FA155A"/>
    <path d="M7.29639 18.0907L11.8412 13.6749C12.6849 12.8552 14.0275 12.8552 14.8712 13.6749V13.6749C15.7148 14.4946 17.0574 14.4946 17.9011 13.6749L21.6884 9.99512" stroke="#FA155A" stroke-width="1.5" stroke-linecap="round"/>
    <path d="M6.84668 8.64648V18.6893C6.84668 20.3461 8.18983 21.6893 9.84668 21.6893H22.1382" stroke="#FA155A" stroke-width="1.5" stroke-linecap="round"/>
</svg>
