<svg width="27" height="38" viewBox="0 0 27 38" fill="none" xmlns="http://www.w3.org/2000/svg">
    <path d="M1 28.7855V31.5125C1 33.6509 3.59633 34.7095 5.09153 33.1808C5.5404 32.7218 6.15525 32.4632 6.79719 32.4632H13.1433H19.4894C20.1313 32.4632 20.7462 32.7218 21.1951 33.1808C22.6903 34.7095 25.2866 33.6509 25.2866 31.5125V28.7855C25.2866 28.0014 24.9796 27.2484 24.4313 26.6878L21.3485 23.5359C20.8002 22.9754 20.4932 22.2224 20.4932 21.4383V8.73783C20.4932 7.9537 20.1862 7.20073 19.6379 6.64015L15.288 2.19277C14.1113 0.989676 12.1753 0.989676 10.9986 2.19277L6.64871 6.64015C6.10042 7.20073 5.79341 7.9537 5.79341 8.73783V21.4383C5.79341 22.2224 5.48639 22.9754 4.9381 23.5359L1.8553 26.6878C1.30701 27.2484 1 28.0014 1 28.7855Z" stroke="#0B38FA" stroke-width="1.5" stroke-linecap="round"/>
    <path d="M6.13745 27.0889V32.2264" stroke="#0B38FA" stroke-width="1.5" stroke-linecap="round"/>
    <path d="M19.6819 27.0889V32.2264" stroke="#0B38FA" stroke-width="1.5" stroke-linecap="round"/>
    <circle cx="13.1436" cy="12.8358" r="3.14826" stroke="#0B38FA" stroke-width="1.5" stroke-linecap="round"/>
</svg>
