<svg width="32" height="36" viewBox="0 0 32 36" fill="none" xmlns="http://www.w3.org/2000/svg">
    <path d="M18.1213 33.435L18.6517 33.9654L18.1213 33.435ZM12.3223 31.8787L11.792 32.409L12.3223 31.8787ZM4 1.75H28V0.25H4V1.75ZM1.75 28V4H0.25V28H1.75ZM10.201 30.25H4V31.75H10.201V30.25ZM14.409 32.9047L12.8527 31.3484L11.792 32.409L13.3483 33.9654L14.409 32.9047ZM19.1473 31.3483L17.591 32.9047L18.6517 33.9654L20.208 32.409L19.1473 31.3483ZM28 30.25H21.799V31.75H28V30.25ZM30.25 4V28H31.75V4H30.25ZM28 31.75C30.0711 31.75 31.75 30.0711 31.75 28H30.25C30.25 29.2426 29.2426 30.25 28 30.25V31.75ZM20.208 32.409C20.63 31.9871 21.2023 31.75 21.799 31.75V30.25C20.8044 30.25 19.8506 30.6451 19.1473 31.3483L20.208 32.409ZM13.3483 33.9654C14.8128 35.4298 17.1872 35.4298 18.6517 33.9654L17.591 32.9047C16.7123 33.7834 15.2877 33.7834 14.409 32.9047L13.3483 33.9654ZM10.201 31.75C10.7977 31.75 11.37 31.9871 11.792 32.409L12.8527 31.3484C12.1494 30.6451 11.1956 30.25 10.201 30.25V31.75ZM0.25 28C0.25 30.0711 1.92893 31.75 4 31.75V30.25C2.75736 30.25 1.75 29.2426 1.75 28H0.25ZM28 1.75C29.2426 1.75 30.25 2.75736 30.25 4H31.75C31.75 1.92893 30.0711 0.25 28 0.25V1.75ZM4 0.25C1.92893 0.25 0.25 1.92893 0.25 4H1.75C1.75 2.75736 2.75736 1.75 4 1.75V0.25Z" fill="#C6C8D3"/>
    <path d="M8 20L13.0526 15.0909C13.9905 14.1796 15.4831 14.1796 16.4211 15.0909V15.0909C17.359 16.0022 18.8516 16.0022 19.7895 15.0909L24 11" stroke="#C6C8D3" stroke-width="1.5" stroke-linecap="round"/>
    <path d="M7.5 9.5V21C7.5 22.6569 8.84315 24 10.5 24H24.5" stroke="#C6C8D3" stroke-width="1.5" stroke-linecap="round"/>
</svg>
