<svg width="29" height="42" viewBox="0 0 29 42" fill="none" xmlns="http://www.w3.org/2000/svg">
    <path d="M1 31.8649V35.0332C1 37.4105 3.88641 38.5874 5.54866 36.8879C6.04767 36.3777 6.73122 36.0901 7.44488 36.0901H14.5H21.5551C22.2688 36.0901 22.9523 36.3777 23.4513 36.8879C25.1136 38.5874 28 37.4105 28 35.0332V31.8649C28 31.0808 27.693 30.3278 27.1447 29.7672L23.5264 26.0678C22.9781 25.5072 22.6711 24.7542 22.6711 23.9701V9.5774C22.6711 8.79326 22.364 8.04029 21.8157 7.47971L16.6447 2.19277C15.468 0.989676 13.532 0.989677 12.3553 2.19277L7.18425 7.47971C6.63596 8.04029 6.32895 8.79326 6.32895 9.5774V23.9701C6.32895 24.7542 6.02193 25.5072 5.47364 26.0678L1.8553 29.7672C1.30701 30.3278 1 31.0808 1 31.8649Z" stroke="#C6C8D3" stroke-width="1.5" stroke-linecap="round"/>
    <path d="M6.71191 30.1152V35.8268" stroke="#C6C8D3" stroke-width="1.5" stroke-linecap="round"/>
    <path d="M21.7695 30.1152V35.8268" stroke="#C6C8D3" stroke-width="1.5" stroke-linecap="round"/>
    <circle cx="14.5" cy="14.2695" r="3.5" stroke="#C6C8D3" stroke-width="1.5" stroke-linecap="round"/>
</svg>
