<svg width="25" height="37" viewBox="0 0 25 37" fill="none" xmlns="http://www.w3.org/2000/svg">
    <path d="M18.5444 21.2455L18.9764 21.8586L18.5444 21.2455ZM22.5227 12.1364C22.5227 15.6471 20.7816 18.7513 18.1123 20.6325L18.9764 21.8586C22.0273 19.7084 24.0227 16.1555 24.0227 12.1364H22.5227ZM12.1364 1.75C17.8726 1.75 22.5227 6.40013 22.5227 12.1364H24.0227C24.0227 5.57171 18.701 0.25 12.1364 0.25V1.75ZM1.75 12.1364C1.75 6.40013 6.40013 1.75 12.1364 1.75V0.25C5.57171 0.25 0.25 5.57171 0.25 12.1364H1.75ZM6.16041 20.6325C3.49115 18.7513 1.75 15.6471 1.75 12.1364H0.25C0.25 16.1555 2.24545 19.7084 5.2963 21.8586L6.16041 20.6325ZM8.11364 26.6364V24.0972H6.61364V26.6364H8.11364ZM13.9091 28.8864H10.3636V30.3864H13.9091V28.8864ZM16.1591 24.0972V26.6364H17.6591V24.0972H16.1591ZM6.61364 26.6364C6.61364 28.7074 8.29257 30.3864 10.3636 30.3864V28.8864C9.121 28.8864 8.11364 27.879 8.11364 26.6364H6.61364ZM5.2963 21.8586C6.10347 22.4274 6.61364 23.248 6.61364 24.0972H8.11364C8.11364 22.6301 7.24655 21.3979 6.16041 20.6325L5.2963 21.8586ZM13.9091 30.3864C15.9802 30.3864 17.6591 28.7074 17.6591 26.6364H16.1591C16.1591 27.879 15.1517 28.8864 13.9091 28.8864V30.3864ZM18.1123 20.6325C17.0262 21.3979 16.1591 22.6301 16.1591 24.0972H17.6591C17.6591 23.248 18.1693 22.4274 18.9764 21.8586L18.1123 20.6325Z" fill="#C6C8D3"/>
    <path d="M9 33H16" stroke="#C6C8D3" stroke-width="1.5" stroke-linecap="round"/>
    <path d="M9 36H16" stroke="#C6C8D3" stroke-width="1.5" stroke-linecap="round"/>
    <path d="M8.5 18.5V15C8.5 13.5239 10.2847 12.7847 11.3284 13.8284V13.8284C11.9755 14.4755 13.0245 14.4755 13.6716 13.8284V13.8284C14.7153 12.7847 16.5 13.5239 16.5 15V18.5" stroke="#C6C8D3" stroke-width="1.5" stroke-linecap="round"/>
</svg>
