<svg width="48" height="38" viewBox="0 0 48 38" fill="none" xmlns="http://www.w3.org/2000/svg">
    <path d="M14.1475 32.7578L14.6458 33.3183L14.1475 32.7578ZM4 12.75H28V11.25H4V12.75ZM1.75 29.5V15H0.25V29.5H1.75ZM10.6246 36.8927L14.6458 33.3183L13.6492 32.1972L9.62802 35.7716L10.6246 36.8927ZM28 31.25H16.1406V32.75H28V31.25ZM30.25 15V29H31.75V15H30.25ZM28 32.75C30.0711 32.75 31.75 31.0711 31.75 29H30.25C30.25 30.2426 29.2426 31.25 28 31.25V32.75ZM14.6458 33.3183C15.0576 32.9522 15.5895 32.75 16.1406 32.75V31.25C15.2222 31.25 14.3357 31.587 13.6492 32.1972L14.6458 33.3183ZM5.25 34.4792C5.25 37.2655 8.54205 38.7439 10.6246 36.8927L9.62802 35.7716C8.51286 36.7629 6.75 35.9712 6.75 34.4792H5.25ZM3.51044 32.75C4.46953 32.75 5.25 33.5283 5.25 34.4792H6.75C6.75 32.6917 5.28981 31.25 3.51044 31.25V32.75ZM0.25 29.5C0.25 31.299 1.71959 32.75 3.51044 32.75V31.25C2.53987 31.25 1.75 30.4624 1.75 29.5H0.25ZM28 12.75C29.2426 12.75 30.25 13.7574 30.25 15H31.75C31.75 12.9289 30.0711 11.25 28 11.25V12.75ZM4 11.25C1.92893 11.25 0.25 12.9289 0.25 15H1.75C1.75 13.7574 2.75736 12.75 4 12.75V11.25Z" fill="#C6C8D3"/>
    <path d="M33.8525 21.7578L33.3542 22.3183L33.8525 21.7578ZM44 1.75H20V0.25H44V1.75ZM46.25 18.5V4H47.75V18.5H46.25ZM37.3754 25.8927L33.3542 22.3183L34.3508 21.1972L38.372 24.7716L37.3754 25.8927ZM20 20.25H31.8594V21.75H20V20.25ZM17.75 4V18H16.25V4H17.75ZM20 21.75C17.9289 21.75 16.25 20.0711 16.25 18H17.75C17.75 19.2426 18.7574 20.25 20 20.25V21.75ZM33.3542 22.3183C32.9424 21.9522 32.4105 21.75 31.8594 21.75V20.25C32.7778 20.25 33.6643 20.587 34.3508 21.1972L33.3542 22.3183ZM42.75 23.4792C42.75 26.2655 39.4579 27.7439 37.3754 25.8927L38.372 24.7716C39.4871 25.7629 41.25 24.9712 41.25 23.4792H42.75ZM44.4896 21.75C43.5305 21.75 42.75 22.5283 42.75 23.4792H41.25C41.25 21.6917 42.7102 20.25 44.4896 20.25V21.75ZM47.75 18.5C47.75 20.299 46.2804 21.75 44.4896 21.75V20.25C45.4601 20.25 46.25 19.4624 46.25 18.5H47.75ZM20 1.75C18.7574 1.75 17.75 2.75736 17.75 4H16.25C16.25 1.92893 17.9289 0.25 20 0.25V1.75ZM44 0.25C46.0711 0.25 47.75 1.92893 47.75 4H46.25C46.25 2.75736 45.2426 1.75 44 1.75V0.25Z" fill="#C6C8D3"/>
</svg>
