<svg width="100" height="34" viewBox="0 0 100 34" fill="none" xmlns="http://www.w3.org/2000/svg">
    <g opacity="0.6">
        <path fill-rule="evenodd" clip-rule="evenodd" d="M52.4579 7.35448H53.8315L53.3003 5.57182H52.989L52.4579 7.35448ZM54.1142 8.29003H52.1895L51.7797 9.67765H50.7388L52.3451 4.54358H53.98L55.5934 9.67765H54.524L54.1142 8.29003Z" fill="#131316"/>
        <path fill-rule="evenodd" clip-rule="evenodd" d="M57.3814 5.50051V9.67765H56.3076V4.54358H60.02V5.50051H57.3814Z" fill="#131316"/>
        <path fill-rule="evenodd" clip-rule="evenodd" d="M64.7317 8.72072V9.67765H60.8765V4.54358H64.6531V5.50051H61.9416V6.57867H64.052V7.51278H61.9416V8.72072H64.7317Z" fill="#131316"/>
        <path fill-rule="evenodd" clip-rule="evenodd" d="M70.1578 4.54358V9.67765H69.084V7.52705H66.8052V9.67765H65.7314V4.54358H66.8052V6.54302H69.084V4.54358H70.1578Z" fill="#131316"/>
        <path fill-rule="evenodd" clip-rule="evenodd" d="M75.0121 5.48625H73.4086V9.67765H72.332V5.48625H70.7285V4.54358H75.0121V5.48625Z" fill="#131316"/>
        <path fill-rule="evenodd" clip-rule="evenodd" d="M80.0096 8.10178C79.8525 9.11433 79.0743 9.82027 77.8821 9.82027C76.3257 9.82027 75.4404 8.73641 75.4404 7.18192C75.4404 5.62744 76.3328 4.54358 77.8821 4.54358C79.0172 4.54358 79.7811 5.18534 79.9596 6.11945H78.8459C78.7245 5.71301 78.3889 5.49196 77.8821 5.49196C76.9682 5.49196 76.5327 6.23354 76.5327 7.18192C76.5327 8.12317 76.9682 8.87189 77.8821 8.87189C78.4318 8.87189 78.803 8.58666 78.903 8.10178H80.0096Z" fill="#131316"/>
        <path fill-rule="evenodd" clip-rule="evenodd" d="M84.7215 5.48625H83.1181V9.67765H82.0415V5.48625H80.438V4.54358H84.7215V5.48625Z" fill="#131316"/>
        <path fill-rule="evenodd" clip-rule="evenodd" d="M88.6082 8.13173C88.6082 7.69961 88.3398 7.47713 87.7872 7.47713H86.5164V8.76493H87.7729C88.3112 8.76493 88.6082 8.56242 88.6082 8.13173ZM88.4626 6.00394C88.4626 5.62316 88.2156 5.43634 87.7287 5.43634H86.5164V6.58009H87.7358C88.2241 6.57867 88.4626 6.39185 88.4626 6.00394ZM89.7191 8.18877C89.7191 9.04445 89.1594 9.67765 87.9329 9.67765H85.4355V4.54358H87.8672C89.0152 4.54358 89.5735 5.16965 89.5735 5.90268C89.5735 6.37045 89.3636 6.77262 89.0294 6.93805V7.08209C89.3993 7.23326 89.7191 7.67822 89.7191 8.18877Z" fill="#131316"/>
        <path fill-rule="evenodd" clip-rule="evenodd" d="M94.3326 7.18192C94.3326 6.24068 93.8942 5.49196 92.9318 5.49196C91.9766 5.49196 91.5311 6.24068 91.5311 7.18192C91.5311 8.12317 91.9766 8.87189 92.9318 8.87189C93.8942 8.87189 94.3326 8.12317 94.3326 7.18192ZM95.4306 7.18192C95.4306 8.67936 94.5539 9.82027 92.9318 9.82027C91.3084 9.82027 90.4331 8.67936 90.4331 7.18192C90.4331 5.68448 91.3084 4.54358 92.9318 4.54358C94.5539 4.54358 95.4306 5.68448 95.4306 7.18192Z" fill="#131316"/>
        <path fill-rule="evenodd" clip-rule="evenodd" d="M52.1551 13.9561V17.5442H52.2964L54.2083 13.9561H55.5933V19.0901H54.5981V15.4235H54.4567L52.502 19.0901H51.167V13.9561H52.1551Z" fill="#131316"/>
        <path fill-rule="evenodd" clip-rule="evenodd" d="M61.3047 13.9561V19.0901H60.231V16.9395H57.9522V19.0901H56.8784V13.9561H57.9522V15.9555H60.231V13.9561H61.3047Z" fill="#131316"/>
        <path fill-rule="evenodd" clip-rule="evenodd" d="M66.8736 13.9561V19.0901H65.7999V16.9395H63.521V19.0901H62.4473V13.9561H63.521V15.9555H65.7999V13.9561H66.8736Z" fill="#131316"/>
        <path fill-rule="evenodd" clip-rule="evenodd" d="M71.6299 16.5944C71.6299 15.6532 71.1916 14.9044 70.2292 14.9044C69.274 14.9044 68.8285 15.6532 68.8285 16.5944C68.8285 17.5356 69.274 18.2844 70.2292 18.2844C71.1916 18.2844 71.6299 17.5356 71.6299 16.5944ZM72.7279 16.5944C72.7279 18.0918 71.8512 19.2327 70.2292 19.2327C68.6057 19.2327 67.7305 18.0918 67.7305 16.5944C67.7305 15.097 68.6057 13.9561 70.2292 13.9561C71.8512 13.9561 72.7279 15.097 72.7279 16.5944Z" fill="#131316"/>
        <path fill-rule="evenodd" clip-rule="evenodd" d="M76.9002 17.5442C76.9002 17.1121 76.6318 16.8896 76.0792 16.8896H74.8084V18.1774H76.0649C76.6032 18.1774 76.9002 17.9749 76.9002 17.5442ZM76.7546 15.4164C76.7546 15.0356 76.5076 14.8488 76.0207 14.8488H74.8084V15.9926H76.0278C76.5161 15.9911 76.7546 15.8043 76.7546 15.4164ZM78.0111 17.6012C78.0111 18.4569 77.4514 19.0901 76.2248 19.0901H73.7275V13.9561H76.1592C77.3072 13.9561 77.8654 14.5821 77.8654 15.3152C77.8654 15.7829 77.6555 16.1851 77.3214 16.3505V16.4946C77.6912 16.6457 78.0111 17.0907 78.0111 17.6012Z" fill="#131316"/>
        <path fill-rule="evenodd" clip-rule="evenodd" d="M80.1586 16.767H81.5322L81.001 14.9843H80.6897L80.1586 16.767ZM81.8149 17.7025H79.8901L79.4804 19.0901H78.4395L80.0458 13.9561H81.6807L83.2941 19.0901H82.2247L81.8149 17.7025Z" fill="#131316"/>
        <path fill-rule="evenodd" clip-rule="evenodd" d="M87.9753 19.1101H84.0073V13.9561H85.0654V18.1503H87.2229V13.9561H88.2809V18.1503H89.0048V20.3736H87.9753V19.1101Z" fill="#131316"/>
        <path fill-rule="evenodd" clip-rule="evenodd" d="M90.8499 13.9561V17.5442H90.9912L92.9017 13.9561H94.2881V19.0901H93.2929V15.4235H93.1516L91.1968 19.0901H89.8618V13.9561H90.8499Z" fill="#131316"/>
        <path fill-rule="evenodd" clip-rule="evenodd" d="M99.1262 12.6716C99.0691 13.3462 98.5865 13.7655 97.7826 13.7655C96.9802 13.7655 96.4961 13.3462 96.4404 12.6716H97.2215C97.25 12.9126 97.4342 13.1123 97.7826 13.1123C98.1239 13.1123 98.3081 12.9212 98.3438 12.6716H99.1262ZM96.5618 14.0208V17.5633H96.7032L98.615 14.0208H100V19.0892H99.0049V15.4683H98.8621L96.9088 19.0892H95.5737V14.0208H96.5618Z" fill="#131316"/>
        <path fill-rule="evenodd" clip-rule="evenodd" d="M51.167 23.5129H52.8447L53.68 25.5623H53.8228L54.6581 23.5129H56.3072V28.647H55.3063V24.6424H55.1621L54.2269 26.9285H53.2474L52.3121 24.6424H52.1679V28.647H51.167V23.5129Z" fill="#131316"/>
        <path fill-rule="evenodd" clip-rule="evenodd" d="M61.0635 26.0091C61.0635 25.0678 60.6252 24.3191 59.6628 24.3191C58.7076 24.3191 58.2621 25.0678 58.2621 26.0091C58.2621 26.9503 58.7076 27.699 59.6628 27.699C60.6252 27.699 61.0635 26.9503 61.0635 26.0091ZM62.1615 26.0091C62.1615 27.5065 61.2848 28.6474 59.6628 28.6474C58.0393 28.6474 57.1641 27.5065 57.1641 26.0091C57.1641 24.5116 58.0393 23.3707 59.6628 23.3707C61.2848 23.3707 62.1615 24.5116 62.1615 26.0091Z" fill="#131316"/>
        <path fill-rule="evenodd" clip-rule="evenodd" d="M67.4446 26.9289C67.2875 27.9415 66.5094 28.6474 65.3171 28.6474C63.7608 28.6474 62.8755 27.5636 62.8755 26.0091C62.8755 24.4546 63.7679 23.3707 65.3171 23.3707C66.4522 23.3707 67.2161 24.0125 67.3946 24.9466H66.2809C66.1595 24.5402 65.824 24.3191 65.3171 24.3191C64.4033 24.3191 63.9678 25.0607 63.9678 26.0091C63.9678 26.9503 64.4033 27.699 65.3171 27.699C65.8668 27.699 66.2381 27.4138 66.338 26.9289H67.4446Z" fill="#131316"/>
        <path fill-rule="evenodd" clip-rule="evenodd" d="M68.4438 23.5129H69.5219V25.5195H70.7141L71.6922 23.5129H72.8045L71.6194 26.0087L72.8702 28.647H71.7565L70.7227 26.4893H69.5219V28.647H68.4438V23.5129Z" fill="#131316"/>
        <path fill-rule="evenodd" clip-rule="evenodd" d="M76.7571 27.1011C76.7571 26.669 76.4887 26.4465 75.9361 26.4465H74.6654V27.7343H75.9219C76.4602 27.7343 76.7571 27.5318 76.7571 27.1011ZM76.6115 24.9733C76.6115 24.5925 76.3645 24.4057 75.8776 24.4057H74.6654V25.5495H75.8847C76.3731 25.548 76.6115 25.3612 76.6115 24.9733ZM77.868 27.1581C77.868 28.0138 77.3083 28.647 76.0818 28.647H73.5845V23.5129H76.0161C77.1641 23.5129 77.7224 24.139 77.7224 24.872C77.7224 25.3398 77.5125 25.742 77.1784 25.9074V26.0515C77.5482 26.2026 77.868 26.6476 77.868 27.1581Z" fill="#131316"/>
        <path fill-rule="evenodd" clip-rule="evenodd" d="M83.3608 28.647H84.436V23.5129H83.3608V28.647ZM81.6845 26.9499C81.6845 26.4679 81.4247 26.1955 80.7093 26.1955H79.7998V27.7058H80.7093C81.4247 27.7058 81.6845 27.4391 81.6845 26.9499ZM78.7246 28.647V23.5129H79.7998V25.2528H80.8749C82.0815 25.2528 82.7883 25.8932 82.7883 26.9428C82.7883 28.0067 82.0801 28.647 80.8749 28.647H78.7246Z" fill="#131316"/>
        <path fill-rule="evenodd" clip-rule="evenodd" d="M8.58984 29.4991C8.36586 29.7764 8.0238 29.87 7.82174 29.7083C7.64401 29.566 7.63914 29.2706 7.79374 29.0128C7.66592 29.0456 7.55272 29.1149 7.47724 29.2244C7.28613 29.5004 7.3969 29.9113 7.728 30.1423C8.05911 30.3745 8.48394 30.3368 8.67505 30.0621C8.80895 29.8712 8.79313 29.6134 8.66044 29.397C8.63975 29.4311 8.61662 29.4663 8.58984 29.4991ZM19.9215 9.92443C19.5223 9.54266 19.6404 8.78885 19.6404 8.78885C19.4724 8.92989 19.2581 9.9147 19.6136 10.4132C20.025 10.9919 20.3939 11.0722 20.7201 11.702C20.7603 11.612 20.7091 11.3871 20.6239 11.2181C20.4961 10.9615 20.4462 10.7488 20.7481 10.6612C21.6014 10.4132 22.3951 11.6436 22.8613 11.6229C23.5138 11.595 23.6598 11.0102 23.6878 10.9822C23.7158 10.9542 23.3446 11.2351 22.9246 11.1852C22.26 11.105 21.952 10.3585 21.2046 10.2053C20.7262 10.1092 20.322 10.3074 19.9215 9.92443ZM19.4675 23.6328C19.246 23.9574 19.4152 24.4158 20.0031 24.5872C20.5326 24.7416 20.8832 24.9021 21.1425 25.1635C21.5235 25.5441 21.7012 25.5915 21.7925 25.5891L5.52472 3.0368L5.30926 3.19364C5.30926 3.19364 14.697 16.209 18.8722 22C19.0281 22.2152 19.6635 23.3447 19.4675 23.6328ZM19.4042 24.6602C18.7858 24.676 18.0761 24.896 17.3616 24.2346C16.4352 23.3787 15.4699 23.9258 15.4699 23.9258C15.4699 23.9258 16.0798 24.5337 15.7402 24.7842C15.1875 25.1927 15.5941 25.6717 15.5454 25.859C15.4955 26.045 14.9392 26.0839 14.008 25.6584C13.4785 25.414 12.994 25.4225 12.675 25.4736C12.434 25.5137 12.5144 25.6888 12.5679 25.7386C12.5679 25.7386 12.9599 26.0973 13.1121 26.197C13.235 26.2748 13.5466 26.5338 13.6635 26.4499C13.7767 26.3684 13.5296 25.91 13.5296 25.91C13.5296 25.91 15.3652 26.5228 16.0068 26.5228C16.753 26.5228 16.0542 25.2815 16.641 25.2231C16.9368 25.1927 17.3068 25.6547 17.9155 25.7423C18.3403 25.8043 18.7493 25.6231 19.1668 25.5185C19.6111 25.4079 19.7791 25.9587 19.8412 26.4438C19.8522 26.5228 19.868 26.7234 19.9532 26.8705C20.0993 26.1714 20.2953 24.6395 19.4042 24.6602ZM24.0494 26.0961C23.8071 25.4444 23.3458 25.7252 23.1388 25.6535C22.9319 25.5818 22.6641 25.324 22.5777 24.6322C22.4912 23.9392 21.9033 24.3137 21.9033 24.3137C21.9033 24.3137 22.5837 25.679 22.8576 26.4061C23.1327 27.1319 23.364 26.569 23.6988 26.9678C24.036 27.3666 23.997 29.414 23.8059 30.073C23.5515 30.946 23.0414 31.5612 22.5217 31.9758C22.9952 31.9211 23.8777 30.9922 24.126 30.383C24.4109 29.6839 24.2478 29.0383 24.2478 29.0383L24.6458 29.0031L24.4024 28.3684L24.787 28.3101C24.7895 28.3101 24.2904 26.7453 24.0494 26.0961ZM8.23318 27.3909C7.74626 27.2572 7.22161 27.2329 6.70183 27.3022C6.16501 27.3824 5.73287 27.5344 5.2837 27.5113C4.83695 27.5003 4.41821 27.3253 4.14554 27.0018C4.02259 26.8596 3.93373 26.693 3.86921 26.5167C4.08467 26.0705 4.50463 25.6182 5.25205 25.2024C7.86556 23.7495 7.00129 22.1106 6.83817 20.2115C6.75539 19.2473 6.95138 18.3683 7.44681 17.9233C8.14675 17.2923 9.32265 17.3701 9.32265 17.3701C9.18875 17.1987 7.61358 16.6345 6.4109 16.9835C5.12301 17.358 4.88443 18.2905 4.66288 18.9531C4.47177 19.5282 4.22101 20.2042 3.08285 20.682C1.16806 21.4857 1.29709 22.9921 1.29709 22.9921C1.29709 22.9921 0.603236 21.5039 2.46325 20.2467C4.826 18.6504 3.91669 17.4236 4.7067 16.6917C5.32387 16.1215 6.06154 16.2127 7.18875 16.5203C6.98668 16.2807 3.99216 15.0248 3.64523 17.6923C3.35065 19.9598 1.1851 19.6437 0.808958 21.7775C0.544807 23.2912 1.97633 24.5593 1.97633 24.5593C1.97633 24.5593 0.832086 22.2674 3.08285 21.341C4.63975 20.7015 5.52715 19.9622 5.75844 19.2328C5.74505 19.4662 5.74748 19.7142 5.75357 19.9853C5.77791 21.0115 6.26605 21.8127 6.11632 23.2559C6.03354 24.0498 4.58254 24.8425 3.77305 25.6584C3.80104 25.2924 3.89964 24.9374 4.08224 24.6444C4.28674 24.3319 4.62149 23.9963 4.76757 23.6267C4.93434 23.262 4.95746 22.8741 4.9039 22.5605C4.86008 22.3051 4.77 22.1021 4.67384 21.9307C4.63732 21.9452 4.60323 21.9598 4.56915 21.9708C4.73348 22.355 4.82478 22.9386 4.50829 23.5051C4.35126 23.8298 4.0725 24.0596 3.77548 24.4401C3.50524 24.817 3.31778 25.2912 3.29344 25.8079C3.28613 25.972 3.30196 26.1398 3.32995 26.3088C2.99885 27.1757 3.37621 28.2955 3.6781 28.8134C4.03963 29.4298 4.37925 29.8809 4.20275 30.597C4.02502 31.3131 4.64706 31.0651 5.08771 31.0724C5.22648 31.0736 5.37134 31.0748 5.50281 31.0748C5.79252 31.0736 5.91182 30.8633 5.73409 30.5788C5.42612 30.0876 4.93677 29.3605 4.54724 29.0493C4.1991 28.7709 3.63062 28.0389 3.68297 27.1915C4.19666 27.8019 4.77487 27.994 5.25205 28.0377C5.81322 28.0876 6.34273 27.876 6.77365 27.8079C7.22648 27.7362 7.69027 27.7484 8.11023 27.8505C8.52898 27.9551 8.90999 28.1472 9.20335 28.4037C9.50159 28.659 9.66592 28.9982 9.75235 29.3253C9.91425 29.9697 9.47116 30.5739 9.11327 30.8913C9.13519 30.9156 9.16318 30.9387 9.18753 30.9606C9.81321 30.5837 10.1504 29.9259 10.0287 29.1405C9.91425 28.3684 9.21553 27.6292 8.23318 27.3909ZM7.72314 15.3202C8.49124 16.1312 9.31656 15.8054 9.6854 15.8491C10.0542 15.8917 10.4791 16.8376 10.2551 17.7543C10.0311 18.671 9.94225 18.513 9.78887 19.0881C9.59654 19.8127 10.4937 20.3319 10.2855 20.9993C10.2283 21.1854 10.0993 21.4516 10.2551 21.6595C10.4973 21.9854 10.8905 21.5562 11.3859 21.6291C11.7743 21.6851 12.1163 21.555 12.2855 21.4528C12.2271 21.1696 11.1084 21.3434 10.8576 20.8863C10.7481 20.6844 10.4547 18.6005 11.1035 17.6692C11.7 16.8157 11.1461 16.5482 10.7383 15.8588C11.2971 15.5512 12.613 14.8971 12.613 14.8971C13.0439 15.3932 13.3482 15.8212 13.6099 16.4193C13.7487 16.716 13.8436 17.0358 13.8327 17.3567C13.8412 17.6826 13.7195 18.0036 13.5138 18.2941C13.7864 18.2516 14.036 17.764 14.1114 17.3884C14.1833 17.0114 14.1285 16.6236 14.0262 16.2649C13.6464 15.1026 12.7627 14.271 12.7627 14.271C12.7627 14.271 11.5673 14.6807 10.4584 15.2825C10.109 14.626 9.75722 14.7427 9.32021 14.7804C8.88686 14.8181 8.62514 14.361 8.62514 14.361C8.96111 14.4679 9.42855 14.4862 10.0555 14.2394C11.4602 13.685 10.927 12.5239 10.927 12.5239C10.927 12.5239 10.9562 13.3664 10.1163 13.4856C9.5941 13.5585 8.22344 13.2193 8.22344 13.2193C8.22344 13.2193 9.32143 13.0916 9.54541 12.4594C9.84973 11.5937 10.7213 11.9342 10.7213 11.9342C10.7213 11.9342 10.2563 11.3871 9.53932 11.815C9.10232 12.0789 8.37682 12.1628 7.48698 11.7117C6.59836 11.2618 6.27578 12.0083 6.09563 12.0266C5.91668 12.0472 5.7767 11.753 5.87651 11.4466C5.97755 11.139 6.99885 10.8497 8.53628 10.7913C9.5515 10.7524 10.0494 10.9518 10.2697 11.0928C10.2721 11.0089 9.99824 10.6332 9.16197 10.4278C8.32569 10.2211 8.38047 9.87944 8.41942 9.28977C8.45837 8.7001 7.60141 8.93596 7.39325 8.8618C7.1851 8.78763 7.37864 8.32441 7.37864 8.32441C7.07919 8.41073 6.85034 8.65268 6.8613 9.01378C6.86738 9.25451 7.09867 9.42837 7.32873 9.54144C7.5588 9.65573 7.59654 9.86242 7.18266 10.1032C6.84791 10.2977 6.3683 10.5506 5.72557 10.8266C4.29526 11.4393 6.08102 12.4959 5.4529 12.8193C4.82235 13.1427 4.66897 13.5658 4.63367 13.7968C4.55576 14.3208 4.90634 14.7111 4.90634 14.7111C6.1358 14.0436 6.95503 14.5105 7.72314 15.3202ZM15.0013 13.4467C15.0013 12.9214 15.1364 12.6685 15.2813 12.6625C15.7243 12.6442 15.8193 13.2716 15.8254 13.4418C15.8436 13.9415 15.4748 14.181 15.4748 14.181C15.7913 14.2078 16.0408 13.7701 16.0822 13.4916C16.1419 13.0795 16.0688 12.9372 15.9228 12.6637C15.9228 12.6637 16.8491 13.5597 16.7505 14.5543C16.6385 15.6813 15.3677 16.2722 15.3677 16.2722C15.7438 16.4072 16.8333 16.2978 17.5296 15.4102C17.9142 14.9202 18.0822 14.1749 17.616 12.9992C17.1936 11.9317 16.3878 11.0284 17.2447 8.98338C18.0798 6.98944 20.2892 6.72925 21.6184 7.67637C21.7049 7.73716 21.7548 7.81133 21.784 7.88914C21.8704 8.12501 21.2496 8.43383 21.5211 8.57608C21.7085 8.67456 21.9532 8.70009 22.165 8.86058C22.3585 9.0077 22.3975 9.13293 22.4961 9.22411C22.5704 9.29342 22.6032 9.30679 22.675 9.30679C22.0737 8.60283 21.9739 7.80039 21.8765 6.95296C21.4042 6.83138 20.6556 6.44839 19.9155 6.36207C19.4517 6.30736 18.3293 6.23441 17.2034 6.78761C15.9349 7.41011 14.5935 8.62228 14.5935 11.432C14.5923 12.6406 15.0013 13.516 15.0013 13.4467ZM0.884429 19.9878C1.53811 19.8103 1.53811 19.3252 1.54663 19.2255C1.65132 19.3641 1.68784 19.516 1.69027 19.713C1.97877 19.3373 1.90938 18.6856 1.20214 18.2966C1.20214 18.2966 1.24231 19.1525 0.694533 19.454C0.123626 19.7677 0.0347644 19.9683 0.00311497 20.2784C-0.0102752 20.4303 0.0189397 20.5884 0.101715 20.71C0.175969 20.8328 0.30135 20.9191 0.419426 20.9483C0.246572 20.7161 0.212488 20.1701 0.884429 19.9878ZM14.557 8.0241C12.955 8.11528 12.3951 7.54142 11.3007 7.01375C10.2027 6.48487 9.25935 6.8715 9.0938 7.12074C9.60384 7.15236 10.1833 7.3554 11.2825 8.04477C13.5004 9.4381 14.557 8.0241 14.557 8.0241ZM13.8388 4.62588C13.6063 4.68789 13.0427 4.77907 13.3056 6.07878C13.5698 7.37971 14.2721 7.06482 14.4608 6.89825C14.4608 6.89825 13.5065 6.79855 13.4785 5.67149C13.4517 4.54199 14.7542 4.74989 14.7542 4.74989C14.6763 4.66235 14.2076 4.5274 13.8388 4.62588ZM28.1127 21.1574C27.7974 20.0352 26.7919 17.747 26.1041 16.7038C25.4127 15.6595 25.0597 16.4084 24.7846 16.6443C24.5083 16.8801 23.7 18.2406 23.3458 16.4874C22.9903 14.733 21.1802 13.2144 21.1802 13.2144C21.5539 14.5348 21.4541 15.5014 21.3567 16.3488C21.2593 17.195 21.4748 17.4917 21.4748 18.0023C21.4748 18.5154 19.941 18.851 19.8595 19.2449C19.7816 19.6388 22.1443 21.2571 24.3939 19.6352C25.0707 19.1476 25.4918 21.0395 25.7073 21.5513C25.9252 22.0644 25.4906 22.2225 26.0031 22.8133C26.5156 23.4042 26.1212 23.9027 26.1212 24.2711C26.1212 24.6164 27.1364 25.4845 27.3226 25.2948C27.6501 24.969 26.9088 23.0285 26.6142 22.3586C26.3184 21.6875 25.8461 19.5197 25.5125 18.9288C25.3202 18.5908 24.3318 18.8303 24.3318 18.8303L24.2624 18.5677C24.2624 18.5677 24.3999 18.3926 24.5265 18.2589C25.5527 17.1938 25.4724 17.6279 26.5363 18.9288C27.599 20.2285 26.3184 20.7428 27.2435 21.4127C28.1699 22.0839 28.4267 22.2808 28.1127 21.1574ZM11.2508 3.71888C11.2508 3.71888 11.448 3.78575 11.8254 3.79426C12.2027 3.80155 12.3902 3.4514 12.3902 3.4514C11.4712 3.36021 11.2021 3.03559 11.2021 3.03559C11.2021 3.03559 12.0786 2.9906 12.5217 2.93224C12.9648 2.87267 13.773 2.65625 13.773 2.65625C13.773 2.65625 13.7426 3.38088 13.7365 3.80155C13.7329 4.22223 14.2733 4.12982 14.4535 4.07268C14.6811 4.00095 14.7164 3.16203 14.7542 2.4447C14.7822 1.90244 14.3805 1.89758 14.1504 1.99363C13.812 2.13466 13.1693 2.46537 12.4742 2.67813C11.7791 2.88969 10.6909 2.73528 10.6909 2.73528L10.6312 2.96142L11.5466 3.52435L11.2508 3.71888ZM12.7566 7.15965L13.0049 7.05387C13.0049 7.05387 12.815 6.49824 12.8016 6.00705C12.7907 5.51343 12.9928 4.42284 12.9928 4.42284H12.7578C12.7578 4.42284 12.6507 5.22406 12.5119 5.92559C12.3744 6.62712 12.0068 6.48973 11.8266 6.47636C11.6464 6.46298 10.2174 6.25751 10.2174 6.25751V6.46785C10.2174 6.46785 10.3074 6.48001 11.0305 6.58457C11.7536 6.68913 12.7566 7.15965 12.7566 7.15965ZM13.6477 10.2478C13.0585 10.626 12.0895 10.4387 12.0895 10.4387C12.2198 10.6211 12.9222 10.8375 13.2764 10.8314C13.5831 10.8253 13.8546 10.7038 14.0956 10.4387C14.6215 9.86364 14.4072 8.90557 14.2794 8.7852C14.2806 8.7852 14.2222 9.87944 13.6477 10.2478ZM12.2843 27.307C10.9295 25.955 11.4237 26.0912 12.2843 24.8851C12.9209 23.9915 16.0287 23.2024 17.5941 22.8559L17.5637 22.7124C16.77 22.7477 15.5807 22.789 14.3866 22.7878C12.3403 22.7866 11.515 22.0073 10.9842 22.1057C8.95016 22.4863 10.3963 24.8194 8.01041 24.4887C5.62332 24.1593 5.70244 26.6335 5.70244 26.6335C6.37925 25.2571 7.07919 25.4505 7.61845 25.4274C8.24292 25.4006 8.85156 25.8614 9.728 25.1246C9.92033 24.9641 10.7919 23.5526 10.6665 24.2577C10.5935 24.6699 10.2368 25.1404 9.95198 25.4638C9.7487 25.6948 9.63062 25.8711 10.0445 26.1046C10.1918 26.1885 10.3853 26.3003 10.6361 26.445C11.6026 27.0006 11.4419 27.6316 10.8126 27.6C10.3646 27.5757 9.83512 27.3557 9.39082 27.3095C9.21066 27.2912 9.00615 27.3654 9.291 27.5015C9.44072 27.5733 9.60993 27.6766 9.75844 27.8237C10.4669 28.5326 9.61966 28.2529 11.6489 28.1435C12.081 28.1192 12.3878 28.0791 12.6057 28.0341C13.4127 27.8578 12.462 27.4833 12.2843 27.307ZM22.7201 28.4864C22.557 28.2323 22.4255 27.876 22.2733 27.5575C21.9495 26.8803 22.2673 27.0104 22.0676 26.6201C21.8436 26.1885 21.7316 26.6116 21.168 25.7483C21.0573 25.5769 20.8333 25.6523 20.8065 26.0657C20.7773 26.4778 21.4687 26.8669 21.784 27.8663C22.1017 28.8681 22.3622 28.9836 22.1041 29.5976C21.8497 30.2128 20.5947 30.1751 20.5947 30.1751C21.5746 31.1952 23.5673 29.8043 22.7201 28.4864Z" fill="#131316"/>
        <path fill-rule="evenodd" clip-rule="evenodd" d="M33.2735 33.1919L32.8657 33.0436L44.8755 0L45.282 0.14833L33.2735 33.1919Z" fill="#131316"/>
    </g>
</svg>
