<svg width="150" height="34" viewBox="0 0 150 34" fill="none" xmlns="http://www.w3.org/2000/svg">
    <g opacity="0.6">
        <path d="M0 26.4528C0 29.5207 2.0699 31.4243 5.40884 31.4243H8.64306C10.6822 31.4243 12.3147 32.028 13.6392 33.2724L13.9102 33.5311L14.1874 33.2662C15.4996 32.028 17.1321 31.4243 19.1774 31.4243H22.4177C25.7444 31.4243 27.8081 29.5207 27.8081 26.4528V0H0V26.4528ZM0.585239 0.585239H27.2229V26.4528C27.2229 29.2004 25.424 30.839 22.4177 30.839H19.1774C17.0397 30.839 15.3148 31.4551 13.9102 32.7241C12.4995 31.4551 10.7746 30.839 8.64306 30.839H5.40884C2.39024 30.839 0.585239 29.2004 0.585239 26.4528V0.585239Z" fill="#131316"/>
        <path d="M4.51542 16.9597C4.64479 17.0644 4.78648 17.1445 4.92817 17.2307C5.0637 17.3047 5.06986 17.317 5.00209 17.4525C4.98977 17.4833 4.96513 17.5141 4.95281 17.5449C4.52774 18.3396 4.42917 19.1651 4.73719 20.0214C4.79264 20.1754 4.86656 20.3294 4.94665 20.5204C5.02057 20.1569 5.08218 19.8489 5.14994 19.5409C5.24235 19.122 5.42716 18.7647 5.79678 18.5183C5.91383 18.4382 6.02472 18.3396 6.13561 18.2472C6.16025 18.2287 6.19721 18.2164 6.23417 18.1979C6.35122 18.3581 6.44363 18.5244 6.44979 18.7092C6.47443 19.0973 6.42515 19.4793 6.22801 19.8304C6.09248 20.0769 5.96312 20.3294 5.85223 20.5882C5.61813 21.1241 5.6859 21.6416 6.03704 22.1098C6.16025 22.2761 6.30194 22.4178 6.44363 22.5903C6.39435 22.6519 6.32658 22.7258 6.27114 22.7998C6.16641 22.9353 6.16641 23.0585 6.26498 23.2002C6.3081 23.2618 6.3697 23.3111 6.41899 23.3727C6.49291 23.4712 6.59148 23.5636 6.62844 23.6807C6.72701 23.9826 6.81325 24.2844 6.72701 24.6109C6.69005 24.7403 6.70237 24.8758 6.8379 24.9559C7.09047 25.1037 7.36769 25.1407 7.65723 25.1037C7.7866 25.0853 7.79892 25.0545 7.78044 24.9189C7.7558 24.7464 7.70035 24.5863 7.58947 24.4446C7.45394 24.2721 7.31841 24.0996 7.18904 23.9209C6.97958 23.6314 6.95494 23.2187 7.13359 22.9414C7.52786 23.1386 7.94061 23.2618 8.38416 23.3234C8.38416 23.3788 8.39032 23.4158 8.38416 23.4466C8.35336 23.7115 8.34104 23.9826 8.37184 24.2536C8.4088 24.6417 8.72298 25.0421 9.07412 25.153C9.48071 25.2762 9.86882 25.2085 10.2384 25.0298C10.6142 24.845 10.8545 24.4754 10.7806 23.9456C10.7559 23.7916 10.7128 23.6437 10.6697 23.4712C10.7559 23.348 10.9038 23.3788 11.0393 23.3665C11.1748 23.3542 11.2796 23.4158 11.335 23.5513C11.3966 23.7053 11.452 23.8593 11.5198 24.0072C11.5568 24.0873 11.5445 24.1427 11.5013 24.2167C11.3843 24.4261 11.2857 24.6479 11.1687 24.8635C11.1009 24.9929 11.1379 25.0914 11.2303 25.1777C11.298 25.2393 11.372 25.2824 11.4397 25.344C11.5568 25.4487 11.5445 25.5473 11.3904 25.5781C11.2611 25.6089 11.1132 25.6089 10.9839 25.5781C10.7436 25.5288 10.5834 25.6027 10.4787 25.8245C10.4479 25.8923 10.4109 25.9539 10.3185 25.9724C10.1029 26.0093 9.99203 26.1633 9.9181 26.3543C9.90578 26.3851 9.9181 26.4282 9.9181 26.4775C10.0105 26.4344 10.0721 26.4036 10.1399 26.379C10.5834 26.2003 11.0331 26.2249 11.4828 26.3235C11.951 26.4221 12.3823 26.6192 12.7889 26.8779C12.8073 26.8903 12.8381 26.8903 12.8689 26.8964C12.9121 26.6808 12.8813 26.5022 12.6718 26.4036C12.6164 26.379 12.5671 26.342 12.5055 26.3235C12.2221 26.2311 11.9387 26.151 11.6553 26.0648C11.5753 26.0401 11.489 26.034 11.4767 25.9046C11.6492 25.8553 11.8217 25.8553 11.9818 25.8923C12.4131 25.9847 12.8381 26.0956 13.2694 26.2003C13.3987 26.2311 13.5281 26.2866 13.6698 26.3297C13.6821 26.2804 13.7068 26.2434 13.7068 26.2065C13.6821 26.0155 13.6513 25.8245 13.5466 25.6582C13.4665 25.5288 13.3987 25.3933 13.3187 25.2639C13.2201 25.1037 13.2078 24.9436 13.2817 24.7526C13.6452 24.7341 13.9778 24.8697 14.3228 24.9621C14.6739 25.0545 15.0128 25.1777 15.3886 25.2947C15.4009 25.1346 15.4132 24.9929 15.4255 24.8573C15.481 24.8327 15.5364 24.8142 15.5857 24.7957C15.7767 24.728 15.7767 24.728 15.9183 24.8881C16.3065 25.3255 16.787 25.6027 17.3476 25.7629C17.4646 25.7937 17.5817 25.8122 17.7357 25.7691C17.6494 25.7013 17.5817 25.652 17.5262 25.5966C17.4646 25.535 17.3845 25.4857 17.3968 25.3871C17.4215 25.3748 17.4338 25.3625 17.4461 25.3686C17.6556 25.4303 17.865 25.498 18.0745 25.5596C18.2408 25.6089 18.2901 25.5843 18.3579 25.4241C18.4256 25.2639 18.4564 25.0914 18.438 24.9189C18.4318 24.8697 18.438 24.8204 18.438 24.7526C18.5981 24.7649 18.6905 24.8512 18.7953 24.9128C19.0786 25.0791 19.0786 25.0791 19.3251 24.8512C19.3497 24.8265 19.3743 24.8019 19.399 24.7772C19.8549 24.2721 20.1382 23.6869 20.2738 23.0215C20.2922 22.923 20.3292 22.8306 20.36 22.7443C20.514 22.7258 20.6557 22.8121 20.7666 22.7073C20.7543 22.578 20.5695 22.5657 20.6126 22.4178C20.8159 22.3932 21.0253 22.4363 21.2286 22.3131C21.1917 22.2823 21.167 22.2638 21.1362 22.2453C20.859 22.0913 20.6311 21.8819 20.4771 21.6046C20.3046 21.2966 20.1444 20.9886 19.9719 20.6806C19.8425 20.4403 19.7501 20.4218 19.5407 20.5635C19.5345 20.5697 19.516 20.5635 19.4667 20.5635C19.3743 20.4034 19.2635 20.2309 19.1649 20.0522C19.0971 19.929 19.0602 19.8058 19.054 19.6579C19.054 19.5532 19.0047 19.4423 18.9431 19.3561C18.8753 19.2514 18.8076 19.2514 18.6967 19.3191C18.6597 19.3438 18.6166 19.3622 18.555 19.3992C18.5365 19.2452 18.518 19.1158 18.4996 18.9618C18.4072 18.9618 18.3209 18.9557 18.2408 18.9618C18.1484 18.968 18.0807 18.931 18.0314 18.8571C17.9513 18.7277 17.8712 18.5984 17.7973 18.469C17.7357 18.3581 17.7665 18.3027 17.8958 18.2842C17.9205 18.278 17.9513 18.2842 17.9759 18.2842C18.7029 18.2718 19.399 18.1178 20.0397 17.7729C20.3169 17.625 20.6064 17.5203 20.9083 17.4402C21.0315 17.4094 21.1547 17.3971 21.2533 17.5018C21.4627 17.7236 21.6722 17.9453 21.8755 18.1671C21.974 18.278 22.0295 18.4074 21.9987 18.5675C21.974 18.6908 22.0295 18.7893 22.1157 18.8817C22.2081 18.9865 22.2882 19.1158 22.3683 19.2329C22.4669 19.3807 22.473 19.5409 22.4176 19.7072C22.3806 19.812 22.356 19.9167 22.3067 20.0214C22.2328 20.1754 22.2759 20.2986 22.3991 20.3849C22.5716 20.5081 22.7502 20.6313 22.9351 20.7299C23.0767 20.8038 23.1568 20.7483 23.1753 20.5943C23.2061 20.3233 23.1876 20.0584 23.0398 19.812C22.855 19.5039 22.7564 19.1713 22.7564 18.8078C22.7564 18.4628 22.6024 18.1918 22.3745 17.9453C22.1958 17.7544 22.048 17.5388 21.9001 17.3231C21.8015 17.1815 21.7399 17.0151 21.6599 16.8673C21.5243 16.627 21.358 16.436 21.0438 16.4668C20.9021 16.4792 20.7543 16.4792 20.6126 16.4792C20.5756 16.4792 20.5387 16.4545 20.4955 16.4422C20.4955 16.4299 20.4894 16.4114 20.4894 16.3991C20.7604 16.319 20.9206 16.1095 21.0993 15.9186C21.3087 15.6906 21.5182 15.4627 21.7399 15.2409C21.8508 15.1239 21.8816 15.13 21.9987 15.2348C22.0356 15.2656 22.0664 15.3025 22.0972 15.3395C22.2636 15.5181 22.4237 15.6968 22.5962 15.8693C22.701 15.974 22.7626 16.0787 22.7441 16.2328C22.7256 16.3868 22.7995 16.4915 22.9535 16.5469C23.009 16.5654 23.0644 16.6085 23.0952 16.6578C23.2616 16.9227 23.2492 17.0644 23.0336 17.3047C23.0151 17.3231 22.9967 17.3478 22.9782 17.3663C22.8488 17.4895 22.855 17.6312 22.9227 17.7852C23.0213 17.9946 23.1753 18.1425 23.3971 18.2164C23.5757 18.278 23.6681 18.241 23.6866 18.0562C23.7051 17.9022 23.6989 17.7359 23.6681 17.588C23.5942 17.2307 23.508 16.8734 23.5511 16.5038C23.5757 16.282 23.4895 16.1219 23.3416 15.9679C23.1137 15.7338 22.8981 15.4935 22.6825 15.2471C22.4669 15.0007 22.2697 14.7481 22.1958 14.4154C22.1835 14.36 22.1588 14.3107 22.1342 14.2614C22.0356 14.0889 21.8878 14.0396 21.7215 14.1444C21.5982 14.2245 21.4874 14.3353 21.3888 14.4462C21.2225 14.6434 21.0315 14.7912 20.8036 14.8959C20.668 14.9575 20.5879 14.9329 20.5202 14.7912C20.4894 14.7173 20.4647 14.6372 20.4524 14.551C20.3846 14.1567 20.2368 13.7994 19.9965 13.4729C19.8918 13.3312 19.7748 13.208 19.6762 13.0663C19.4975 12.8199 19.2758 12.6104 19.171 12.3147C18.9678 11.7357 18.7521 11.1627 18.5427 10.5837C18.4996 10.4728 18.4688 10.3557 18.4256 10.2079C18.5735 10.2202 18.6844 10.2263 18.7953 10.2448C19.0478 10.2818 19.3004 10.3249 19.5099 10.4912C19.6146 10.5713 19.707 10.6699 19.8117 10.7377C19.898 10.7931 19.9904 10.8362 20.0889 10.8547C20.1382 10.867 20.2122 10.8362 20.2491 10.7931C20.2676 10.7746 20.2245 10.7007 20.206 10.6514C20.1998 10.6268 20.1875 10.6083 20.1814 10.5837C20.2553 10.596 20.3046 10.6268 20.3538 10.6637C20.4771 10.75 20.5633 10.75 20.6619 10.6391C20.7111 10.5837 20.7296 10.4912 20.7358 10.4173C20.742 10.288 20.7296 10.1586 20.7235 10.0292C20.7173 9.89369 20.6619 9.79512 20.5325 9.73352C20.4524 9.69039 20.3723 9.62263 20.3169 9.5487C20.052 9.18524 19.7994 8.81561 19.5468 8.44599C19.5037 8.37822 19.4606 8.3043 19.4421 8.22421C19.399 8.0702 19.3559 7.92235 19.2326 7.80531C19.2203 7.79298 19.2203 7.75602 19.2142 7.72522C19.2881 7.7129 19.3559 7.70674 19.4421 7.69442C19.3682 7.54041 19.3189 7.39256 19.2326 7.26935C19.171 7.17694 19.0663 7.0907 18.9678 7.0599C18.8384 7.02293 18.6905 7.01061 18.5612 7.03525C18.3024 7.09686 18.1115 7.01677 17.9266 6.83812C17.8219 6.73955 17.6987 6.66563 17.5755 6.58554C17.5509 6.56706 17.5016 6.57322 17.4523 6.57322C17.4646 6.65947 17.4708 6.72107 17.4831 6.81964C17.2367 6.78884 17.0087 6.75804 16.7746 6.73339C16.7623 6.91821 16.9471 6.97365 16.9841 7.13382C16.9163 7.14614 16.8609 7.16462 16.8054 7.16462C16.5097 7.17694 16.214 7.16462 15.9245 7.25087C15.8814 7.26319 15.8198 7.23239 15.7767 7.20158C15.635 7.09686 15.481 7.07222 15.3085 7.11534C15.0497 7.17694 14.8156 7.28783 14.5939 7.42952C14.5507 7.45416 14.5015 7.47264 14.4152 7.50961C14.4152 7.36176 14.3906 7.24471 14.4214 7.1523C14.5692 6.70259 14.5446 6.25288 14.409 5.80933C14.3536 5.61836 14.2674 5.43971 14.1934 5.24257C14.2058 5.22409 14.2242 5.19329 14.2489 5.17481C14.4337 5.0208 14.5076 4.81134 14.5199 4.58957C14.5261 4.47252 14.4768 4.34315 14.4214 4.24459C14.3721 4.15218 14.255 4.21994 14.1688 4.20762C14.0764 4.1953 13.9778 4.18298 13.8977 4.1337C13.6575 3.98585 13.4172 3.98585 13.1708 4.11522C12.8628 4.27539 12.5424 4.3986 12.1975 4.45404C11.9449 4.49716 11.6923 4.50948 11.4397 4.41708C11.372 4.39244 11.3042 4.38012 11.2118 4.35547C11.2919 4.68198 11.5075 4.86063 11.7354 5.0208C11.6615 5.15633 11.526 5.0208 11.452 5.10704C11.452 5.12553 11.4459 5.14401 11.4582 5.15017C11.6738 5.33498 11.9202 5.44587 12.2159 5.42739C12.2837 5.42123 12.3515 5.42739 12.4131 5.44587C12.5856 5.50131 12.7457 5.51979 12.9121 5.43355C12.9675 5.4089 13.023 5.3781 13.0722 5.42123C13.0722 5.43971 13.0784 5.44587 13.0784 5.45203C13.0661 5.47051 13.0599 5.48899 13.0476 5.50131C12.7581 5.72925 12.6656 6.04343 12.6656 6.40073C12.6656 6.58554 12.6472 6.77036 12.5548 6.94285C12.524 7.01061 12.5178 7.0907 12.4932 7.15846C12.4808 7.20775 12.4624 7.25703 12.4377 7.31247C12.2899 7.27551 12.1543 7.22623 12.025 7.20775C11.9326 7.19542 11.8278 7.18926 11.7416 7.22007C11.6245 7.26319 11.5383 7.25087 11.4336 7.17694C11.2179 7.02909 10.9839 7.01061 10.7498 7.1523C10.6019 7.23855 10.4602 7.34327 10.3185 7.43568C10.2076 7.50961 10.1091 7.59585 9.99819 7.65746C9.92426 7.70058 9.83186 7.7129 9.78873 7.60817C9.69633 7.40488 9.61008 7.19542 9.51767 6.98597C9.43759 6.81348 9.37599 6.61635 9.12341 6.62867C9.01868 6.63483 8.98172 6.5609 8.98172 6.46234C8.98172 6.40689 8.99404 6.33297 8.96324 6.30833C8.83387 6.2036 8.79691 6.06191 8.75994 5.91406C8.74146 5.84013 8.69834 5.79085 8.62442 5.82165C8.61825 5.9079 8.61825 5.98798 8.61825 6.01879C8.66754 6.14199 8.69834 6.2344 8.74146 6.34529C8.7353 6.34529 8.75994 6.35145 8.78459 6.35761C8.87699 6.38841 8.88931 6.46234 8.82771 6.51778C8.75378 6.59786 8.66138 6.66563 8.56897 6.71491C8.53201 6.73339 8.43344 6.71491 8.40264 6.68411C8.28559 6.5609 8.1131 6.45001 8.23015 6.22824C8.18703 6.01879 8.28559 5.9079 8.47657 5.84629C8.48273 5.84629 8.48889 5.82165 8.49505 5.81549C8.43344 5.73541 8.36568 5.65532 8.30407 5.57524C8.0515 5.23025 7.80508 4.87911 7.54634 4.53413C7.49706 4.46636 7.42313 4.40476 7.34921 4.35547C7.2568 4.30003 7.14592 4.32467 7.08431 4.39244C7.01039 4.47252 7.02271 4.55877 7.07199 4.63885C7.10279 4.70046 7.14592 4.7559 7.18288 4.81134C7.46626 5.21793 7.74964 5.62452 8.03918 6.03111C8.0823 6.09271 8.13158 6.16048 8.08846 6.2344C8.02069 6.34529 8.06382 6.43153 8.13158 6.51778C8.19935 6.60402 8.27943 6.68411 8.34104 6.77652C8.40264 6.86892 8.47656 6.96133 8.48889 7.0599C8.52585 7.28167 8.63058 7.46032 8.7353 7.64513C8.79691 7.7437 8.85235 7.84843 8.90779 7.95316C9.00636 8.13797 8.98172 8.29814 8.82771 8.43983C8.7353 8.52607 8.63058 8.6 8.55665 8.69241C8.44576 8.83409 8.3472 8.98195 8.26095 9.13596C8.20551 9.23452 8.18087 9.35773 8.29175 9.47478C8.42112 9.44398 8.55665 9.41933 8.68602 9.37621C8.89547 9.30229 9.07413 9.4563 9.031 9.69039C9.00636 9.83208 8.93244 9.94913 8.78459 9.99841C8.71066 10.0231 8.63674 10.0354 8.56897 10.0662C8.31639 10.1586 8.06382 10.2448 7.8174 10.3496C7.42929 10.522 7.41081 10.9718 7.60179 11.2243C7.76812 11.4399 7.73732 11.557 7.5217 11.7295C7.42313 11.8096 7.31841 11.8712 7.21984 11.9451C7.10279 12.0314 7.02271 12.1422 7.04735 12.2962C7.05967 12.3887 7.01655 12.4503 6.94878 12.5119C6.81941 12.6289 6.73317 12.7768 6.67772 12.9431C6.64692 13.0293 6.65308 13.1033 6.72085 13.171C6.78861 13.2326 6.85022 13.1895 6.91182 13.1649C7.05967 13.1094 7.20136 13.0293 7.35537 12.9985C7.72499 12.9246 8.10078 12.863 8.48273 12.8815C8.79691 12.9 9.10493 12.9431 9.36366 13.1341C9.5608 13.2819 9.74561 13.4482 9.93658 13.6084C10.0167 13.6762 10.0906 13.7501 10.183 13.7932C10.2877 13.8425 10.4233 13.824 10.5095 13.8856C10.5957 13.9472 10.6389 14.0766 10.7005 14.169C10.7066 14.1752 10.7128 14.1813 10.7128 14.1813C10.799 14.2553 10.7929 14.3538 10.7621 14.4462C10.7374 14.5386 10.6512 14.5263 10.5773 14.5386C10.1707 14.5879 9.77025 14.6434 9.38215 14.7789C9.30822 14.8035 9.25278 14.7974 9.19117 14.7481C9.09261 14.668 8.98788 14.5879 8.87699 14.514C8.45192 14.2245 7.99605 14.0027 7.46626 13.9657C7.08431 13.9411 6.74549 14.0581 6.46211 14.3169C6.11713 14.631 5.88303 15.013 5.67974 15.4257C5.58117 15.6229 5.51341 15.8323 5.47028 16.0479C5.42716 16.2697 5.36556 16.4915 5.30395 16.7071C5.26699 16.8303 5.21771 16.855 5.1253 16.7934C4.8912 16.6455 4.65095 16.5161 4.49078 16.2697C4.29364 15.9617 4.28748 15.8015 4.5955 15.4935C4.63863 15.4504 4.70639 15.4319 4.77416 15.4011C4.82344 15.5305 4.768 15.6598 4.87888 15.7522C4.96513 15.8262 5.02673 15.9309 5.0945 16.0233C5.34707 15.8323 5.29779 15.4011 5.03289 15.2717C4.97745 15.2471 4.90969 15.2286 4.85424 15.2348C4.50926 15.2656 4.27516 15.3826 4.17044 15.7646C4.04107 16.2204 4.12115 16.6455 4.51542 16.9597ZM8.06998 5.8771C7.80508 5.49515 7.53402 5.10704 7.26912 4.7251C7.21984 4.65733 7.12743 4.55877 7.21984 4.491C7.33073 4.41092 7.35537 4.56493 7.39849 4.62653C7.65723 4.98384 7.91597 5.34114 8.17471 5.69844C8.21783 5.76005 8.24863 5.83397 8.29175 5.9079C8.16854 5.9695 8.1131 5.94486 8.06998 5.8771ZM6.75165 22.0851C6.59764 21.8572 6.44363 21.6724 6.35122 21.4383C6.36354 21.426 6.38202 21.4137 6.39435 21.4013C6.44363 21.4445 6.49291 21.4814 6.53603 21.5245C6.60996 21.6046 6.68388 21.6909 6.75781 21.7648C6.8687 21.888 6.87486 21.8819 6.75165 22.0851ZM7.25064 24.4877C7.18288 24.5124 7.12743 24.5247 7.07815 24.5432C7.02887 24.6479 7.11511 24.7033 7.14592 24.7772C7.1644 24.8142 7.15208 24.8635 7.15824 24.9128C7.10895 24.9066 7.05351 24.9128 7.01039 24.8881C6.84406 24.7834 6.80709 24.6848 6.88102 24.5062C6.92414 24.3953 6.94262 24.2906 6.8995 24.1674C6.83173 23.9702 6.84406 23.8409 6.8995 23.7115C7.00423 23.7793 7.21368 24.2351 7.25064 24.4877ZM6.95494 21.58C6.76397 21.4999 6.64076 21.389 6.57916 21.2227C6.56068 21.1734 6.59764 21.0933 6.62228 21.0317C6.72085 20.8099 6.83789 20.6005 6.92414 20.3726C7.13976 19.8058 7.1952 19.2144 7.12127 18.623C7.07815 18.2842 6.8995 17.9885 6.67156 17.7297C6.60996 17.662 6.57916 17.6004 6.60996 17.508C6.73317 17.1075 6.84406 16.7009 6.96726 16.3005C7.12743 15.783 7.47858 15.4627 7.99605 15.3149C8.22399 15.2471 8.45192 15.204 8.69218 15.2409C8.72914 15.2471 8.7661 15.2656 8.82771 15.284C8.79691 15.3395 8.77843 15.3888 8.74762 15.4319C8.42728 15.8693 8.28559 16.3683 8.20551 16.8919C8.13774 17.3416 8.12542 17.7975 8.13774 18.2534C8.1439 18.432 8.1439 18.6107 8.16854 18.7893C8.19935 19.0173 8.16854 19.2452 8.1439 19.467C8.1131 19.7319 7.97757 19.9352 7.77428 20.0892C7.65723 20.1816 7.52786 20.2678 7.39849 20.3479C7.26296 20.4342 7.17672 20.5512 7.14592 20.7114C7.09047 20.9948 7.02271 21.2658 6.95494 21.58ZM8.29175 22.9661C7.96525 22.886 7.65107 22.7566 7.36153 22.578C7.25064 22.5102 7.25064 22.4733 7.35537 22.2884C7.76196 22.424 8.1747 22.5657 8.58745 22.7073C8.57513 22.8983 8.45808 23.0092 8.29175 22.9661ZM13.947 17.9946C14.1318 18.2226 14.3228 18.4567 14.5015 18.6846C14.5754 18.7832 14.6493 18.8817 14.7109 18.9926C14.7355 19.0419 14.754 19.1281 14.7232 19.1589C14.6863 19.2021 14.6062 19.2452 14.5507 19.2329C14.2489 19.1713 13.9593 19.0665 13.8053 18.7708C13.7437 18.6538 13.676 18.586 13.5281 18.623C13.4973 18.6292 13.448 18.6107 13.4172 18.5922C13.3248 18.5183 13.2386 18.4382 13.1523 18.3643C13.0907 18.3088 13.0784 18.2534 13.1215 18.1856C13.1831 18.087 13.2509 17.9885 13.294 17.8837C13.3987 17.6373 13.5158 17.3971 13.5835 17.1383C13.7006 16.7009 13.7868 16.2574 13.8916 15.7892C14.0949 15.7338 14.3228 15.6722 14.5877 15.5982C14.5754 15.6968 14.5815 15.7707 14.5631 15.8385C14.409 16.3005 14.2489 16.7625 14.0949 17.2246C14.0333 17.3971 13.9717 17.5757 13.9101 17.7482C13.8792 17.8406 13.8854 17.9207 13.947 17.9946ZM14.637 17.3971C14.7663 16.9658 14.9019 16.5408 15.0374 16.0787C15.099 16.128 15.136 16.1527 15.1668 16.1835C15.3085 16.3375 15.4563 16.4977 15.5918 16.6578C15.7212 16.8057 15.6781 17.126 15.5241 17.2307C15.407 17.317 14.8341 17.4279 14.637 17.3971ZM12.986 17.6188C12.6348 17.6805 12.2837 17.7605 11.9387 17.8345C11.5506 17.9207 11.4828 17.8837 11.4336 17.4833C11.4151 17.3539 11.4028 17.2246 11.3843 17.0952C11.3781 17.0952 11.372 17.0952 11.3658 17.0891C11.4336 16.627 11.5013 16.165 11.5753 15.703C11.5999 15.5613 11.6307 15.4196 11.6738 15.2779C11.7108 15.1424 11.7416 15.1239 11.8833 15.1424C12.3823 15.204 12.8813 15.2717 13.3741 15.3395C13.4234 15.3457 13.4665 15.3703 13.5096 15.3826C13.5897 15.4134 13.6205 15.4627 13.6144 15.5551C13.5527 16.1588 13.4234 16.7502 13.2817 17.3355C13.2324 17.508 13.1523 17.588 12.986 17.6188ZM13.9347 15.0869C13.4295 14.9329 12.9059 14.8282 12.4316 14.5756C12.3453 14.5325 12.2344 14.4955 12.2406 14.3846C12.2467 14.2676 12.3761 14.2429 12.4624 14.2368C12.678 14.2121 12.8997 14.2121 13.1215 14.2121C13.1646 14.2121 13.2139 14.2429 13.2509 14.2676C13.5527 14.477 13.793 14.7481 14.0271 15.0561C13.9717 15.0808 13.947 15.0931 13.9347 15.0869ZM12.6348 13.5345C12.3823 13.6639 12.1359 13.7932 11.8771 13.9164C11.7477 13.978 11.6061 14.0212 11.4644 14.052C11.2734 14.0951 11.1132 14.015 10.9839 13.8795C10.9038 13.7932 10.9038 13.7193 10.99 13.6515C11.1933 13.4914 11.4336 13.3682 11.6923 13.4482C11.9449 13.5283 12.1543 13.479 12.3576 13.3497C12.3946 13.325 12.4254 13.3066 12.4624 13.2819C12.6718 13.1402 12.7026 13.1464 12.832 13.4174C12.7642 13.4606 12.7026 13.5037 12.6348 13.5345ZM11.4582 19.9968C11.6245 19.7873 11.7354 19.7627 11.9634 19.9105C11.9942 19.929 12.0188 19.9536 12.0434 19.9721C12.0496 19.9783 12.0558 19.9968 12.0681 20.0276C11.8032 20.3664 11.372 20.5019 11.0639 20.8038C10.9715 20.6374 10.9777 20.5697 11.0824 20.4526C11.2056 20.3048 11.335 20.1508 11.4582 19.9968ZM10.8791 20.4157C10.7867 20.5389 10.6697 20.6313 10.5711 20.7483C10.3185 21.0502 10.3555 21.3336 10.6943 21.543C10.8422 21.6354 10.9654 21.734 11.027 21.9003C11.0455 21.9435 11.0455 21.9927 11.0516 22.042C10.8052 22.0297 10.5834 22.0235 10.3678 22.0174C9.89346 21.9989 9.45607 22.1221 9.04948 22.3747C9.0002 22.4055 8.93244 22.424 8.87699 22.4178C8.52585 22.3685 8.18703 22.2884 7.87284 22.1283C7.7558 22.0667 7.63875 22.0174 7.52786 21.9619C7.5525 21.7525 7.72499 21.4137 7.879 21.2843C8.1439 21.0564 8.4396 20.8962 8.80307 20.8531C9.01252 20.8284 9.21581 20.7422 9.41911 20.6744C9.93042 20.5019 10.4171 20.2801 10.8853 20.0152C10.9099 20.0029 10.9346 19.9968 10.9654 19.9906C10.9777 19.9906 10.99 19.9968 11.0208 19.9968C11.0824 20.1693 10.9715 20.2925 10.8791 20.4157ZM10.0043 24.2967C9.83802 24.383 9.53616 24.2906 9.46839 24.1181C9.44991 24.075 9.46223 24.001 9.48687 23.9641C9.54848 23.884 9.61624 23.8039 9.69633 23.7423C9.84418 23.6314 10.0105 23.5452 10.2076 23.5144C10.3925 23.8101 10.2692 24.1612 10.0043 24.2967ZM13.3063 25.7383C13.1338 25.8553 12.6656 25.7937 12.3391 25.6212C12.0188 25.4487 11.7416 25.0791 11.7354 24.8019C11.988 24.8204 12.2283 24.8697 12.4316 25.0113C12.6595 25.1715 12.8628 25.3502 13.0784 25.5227C13.1585 25.5904 13.2324 25.6643 13.3063 25.7383ZM14.8772 24.3953C14.8341 24.3891 14.7848 24.383 14.7417 24.3707C14.5015 24.2967 14.2612 24.2475 14.0086 24.2536C13.6821 24.2659 13.3618 24.2906 13.0353 24.2783C12.7765 24.2659 12.5116 24.2844 12.2591 24.1858C12.025 24.0996 11.8402 23.9518 11.6985 23.7485C11.5506 23.5328 11.5753 23.2987 11.6553 23.0708C11.7169 22.8798 11.7046 22.8182 11.5075 22.7751C11.3165 22.732 11.1132 22.695 10.9161 22.6889C10.5588 22.6765 10.2015 22.6581 9.85034 22.769C9.53 22.8675 9.2343 23.0154 9.03716 23.3049C8.7353 23.7546 8.72298 24.229 8.90779 24.728C8.92011 24.7711 8.93244 24.8142 8.94476 24.8512C8.93244 24.8635 8.92011 24.8697 8.90779 24.882C8.85851 24.8327 8.79691 24.7957 8.75378 24.7403C8.47657 24.3891 8.4396 23.9764 8.53201 23.5636C8.57513 23.3665 8.66754 23.1755 8.7661 22.9969C8.96324 22.6396 9.32054 22.4856 9.67169 22.35C10.0721 22.196 10.4849 22.1467 10.9099 22.233C11.1132 22.2761 11.3104 22.3254 11.5136 22.3562C11.8525 22.4055 12.1851 22.3932 12.5178 22.3069C12.5486 22.3008 12.5856 22.2884 12.6164 22.2761C12.8381 22.196 12.9983 22.2638 13.1523 22.4486C13.3248 22.6519 13.5466 22.8121 13.7437 22.9969C13.7807 23.0339 13.8176 23.0708 13.8546 23.1016C13.8484 23.1139 13.8361 23.1324 13.83 23.1447C13.756 23.1386 13.6821 23.1324 13.5897 23.1201C13.6144 23.1755 13.6205 23.2125 13.639 23.2433C13.8546 23.5821 14.1811 23.7854 14.5323 23.9579C14.5939 23.9887 14.6555 24.0195 14.7171 24.0442C14.9142 24.1366 14.9204 24.1489 14.8772 24.3953ZM17.0519 23.8717C16.8855 24.2167 16.6206 24.4754 16.3188 24.7033C16.3065 24.7156 16.2818 24.7156 16.2202 24.728C16.3496 24.4323 16.4666 24.1735 16.5837 23.9148C16.5775 23.9086 16.5652 23.8963 16.559 23.8901C16.4481 23.9579 16.3373 24.0318 16.2202 24.0873C16.1032 24.1427 15.9738 24.192 15.8321 24.2167C16.0169 23.9394 16.1278 23.6437 16.1894 23.3295C16.0108 23.4035 15.8506 23.5082 15.6781 23.539C15.4132 23.5883 15.136 23.5883 14.8588 23.6068C14.8526 23.5883 14.8464 23.576 14.8341 23.5575C14.8711 23.5267 14.9019 23.4836 14.945 23.4651C15.136 23.3727 15.3331 23.2864 15.5302 23.2002C15.5672 23.1817 15.598 23.1632 15.6781 23.1201C15.4933 23.0955 15.3516 23.0831 15.2161 23.0647C15.0805 23.0523 14.945 23.0339 14.8033 22.9846C14.982 22.9045 15.1668 22.8367 15.3331 22.7443C15.4994 22.6457 15.6411 22.5225 15.8321 22.387C15.7582 22.3685 15.7212 22.3562 15.6904 22.3562C15.1421 22.3993 14.6 22.3377 14.0764 22.1776C14.0025 22.1529 13.9347 22.1098 13.8608 22.0543C14.3906 22.0482 14.9019 21.9866 15.3886 21.7771C15.1175 21.7833 14.8526 21.771 14.5877 21.697C14.3351 21.6231 14.0825 21.543 13.8361 21.4445C13.8361 21.426 13.8361 21.4137 13.8361 21.3952C13.8854 21.389 13.9285 21.3705 13.9778 21.3767C14.446 21.4198 14.8957 21.3459 15.3454 21.235C15.5672 21.1796 15.789 21.1303 16.0046 21.0564C16.4481 20.9023 16.6391 21.3089 16.596 21.5985C16.559 21.8757 16.5282 22.1591 16.4913 22.4363C16.4666 22.6149 16.5405 22.7443 16.6884 22.8367C16.8732 22.9414 16.9779 23.1139 17.058 23.2987C17.1504 23.4836 17.1443 23.6807 17.0519 23.8717ZM16.941 21.4506C16.9903 21.2597 17.0334 21.0687 17.0765 20.8715C17.2367 20.8654 17.366 20.964 17.366 21.1364C17.366 21.2288 17.3537 21.3336 17.3229 21.4198C17.2428 21.6354 17.1504 21.851 17.0519 22.0667C17.0334 22.1098 16.9903 22.1406 16.9348 22.2022C16.8794 21.925 16.8732 21.6909 16.941 21.4506ZM19.4483 23.4836C19.245 23.9025 18.9061 24.1674 18.4811 24.3399C18.3825 24.383 18.2778 24.4138 18.1669 24.4507C18.0868 24.7033 18.0067 24.9559 17.9205 25.2208C17.6987 25.1592 17.5201 25.0668 17.3784 24.9128C17.2613 24.7896 17.2613 24.6171 17.3968 24.4815C17.5509 24.3275 17.7172 24.1674 17.902 24.0626C18.2963 23.8409 18.709 23.6561 19.1156 23.4528C19.2326 23.3973 19.3435 23.3419 19.4606 23.2803C19.516 23.3665 19.4791 23.422 19.4483 23.4836ZM18.9369 19.9352C19.1402 20.2247 19.1834 20.582 19.3867 20.8715C19.4667 20.8223 19.5283 20.7853 19.59 20.7422C19.6639 20.6867 19.7316 20.6929 19.7932 20.7483C19.8487 20.8038 19.8364 20.8592 19.7932 20.9147C19.6639 21.0995 19.744 21.2658 19.9904 21.2781C20.0951 21.2843 20.1567 21.3336 20.1937 21.426C20.2676 21.6293 20.3477 21.8326 20.4278 22.0482C20.3846 22.0667 20.3354 22.0913 20.2799 22.1159C20.2922 22.2084 20.2984 22.3069 20.3107 22.3993C20.2368 22.4671 20.1814 22.4178 20.1321 22.3685C19.9534 22.196 19.7686 22.0297 19.6023 21.8511C19.4975 21.7402 19.4175 21.617 19.3127 21.4814C19.3435 21.4383 19.3682 21.4137 19.3867 21.3829C19.5037 21.2165 19.4729 21.1056 19.2819 21.0194C19.171 20.9701 19.091 20.9023 19.054 20.773C19.017 20.6128 18.9431 20.465 18.8938 20.3048C18.8569 20.1939 18.8137 20.0645 18.9369 19.9352ZM18.4503 20.3233C18.5858 20.391 18.6289 20.4958 18.6413 20.6683C18.5735 20.6374 18.5365 20.619 18.4996 20.5943C18.3948 20.5142 18.2901 20.5081 18.1792 20.5758C18.1053 20.619 18.0868 20.6744 18.1361 20.7483C18.21 20.8654 18.2716 20.9886 18.3579 21.0933C18.5673 21.3521 18.7645 21.617 18.8322 21.9558C18.8569 22.0851 18.8692 22.2145 18.8753 22.3439C18.8815 22.5287 18.9616 22.6581 19.1279 22.732C19.1526 22.7443 19.171 22.7628 19.2142 22.7998C19.1402 22.8983 19.0725 23.003 18.9924 23.0955C18.8938 23.2125 18.7953 23.3234 18.6844 23.4343C18.4749 23.6376 18.2223 23.6437 17.9759 23.539C17.7418 23.4404 17.5385 23.2187 17.5632 22.9291C17.5817 22.7505 17.594 22.5718 17.6125 22.3932C17.6556 21.9681 17.6925 21.543 17.7357 21.118C17.7418 21.0502 17.7357 20.9824 17.7233 20.9147C17.6864 20.6066 17.5262 20.4465 17.2182 20.4588C16.9841 20.4711 16.7562 20.5266 16.5282 20.5758C16.3804 20.6066 16.2387 20.6621 16.0908 20.6929C16.0231 20.7052 15.9368 20.6929 15.8752 20.6559C15.6411 20.5204 15.4194 20.3664 15.1914 20.2309C14.9265 20.0707 14.6555 19.9228 14.3844 19.775C14.3721 19.7688 14.3474 19.775 14.3351 19.7688C14.3782 19.9475 14.4583 20.12 14.4645 20.2925C14.4706 20.465 14.3967 20.6374 14.3536 20.8284C14.3659 20.8469 14.4029 20.8715 14.4214 20.9023C14.4522 20.9455 14.5015 21.0194 14.4891 21.0317C14.446 21.0748 14.3844 21.1241 14.329 21.1303C14.1811 21.1426 14.0209 21.1488 13.8731 21.1241C13.4973 21.0625 13.1277 20.9763 12.7581 20.9085C12.5856 20.8777 12.4131 20.8469 12.2221 20.8346C12.524 21.1672 12.8566 21.4629 13.0476 21.8695C13.0291 21.888 13.0106 21.9127 12.9983 21.9127C12.6903 21.9127 12.4069 22.0297 12.1174 22.1098C12.0065 22.1406 11.9326 22.1221 11.871 22.0297C11.7847 21.8942 11.7046 21.7586 11.6184 21.6293C11.4705 21.3952 11.5568 21.1919 11.7108 21.0071C11.7847 20.9208 11.8586 20.8407 11.951 20.7791C12.2529 20.5758 12.45 20.2863 12.6656 20.0091C12.7149 19.9413 12.7581 19.8674 12.8135 19.812C12.8505 19.7688 12.9121 19.738 12.9675 19.7257C13.4973 19.6395 14.0271 19.5594 14.5631 19.4855C15.3454 19.3746 16.0785 19.0973 16.8054 18.8016C16.8979 18.7647 16.9533 18.777 17.0149 18.8571C17.1319 19.0049 17.249 19.1466 17.3784 19.2822C17.4646 19.3746 17.4646 19.4608 17.4092 19.5594C17.3106 19.738 17.3168 19.7442 17.4954 19.8304C17.8096 20.0029 18.1299 20.1693 18.4503 20.3233ZM20.2183 15.6537C20.2861 15.4565 20.4031 15.3149 20.6126 15.2348C20.8282 15.1485 21.0377 15.0376 21.2471 14.9391C21.3888 14.8775 21.3888 14.8775 21.5736 14.9452C21.4504 15.0992 21.3518 15.2471 21.2286 15.3765C21.0746 15.5428 20.9144 15.703 20.7358 15.8385C20.6495 15.9062 20.5202 15.9309 20.4093 15.9371C20.2368 15.9371 20.1629 15.8138 20.2183 15.6537ZM15.9491 9.48094C16.0908 8.71089 16.4297 8.0394 17.1566 7.64513C17.2367 7.60201 17.3229 7.57737 17.403 7.54041C17.5385 7.49112 17.6679 7.4788 17.8034 7.54041C17.8774 7.57121 17.9636 7.57737 18.0437 7.60817C18.1115 7.63281 18.1731 7.63897 18.2408 7.60201C18.3456 7.53425 18.4318 7.56505 18.5242 7.63281C18.6659 7.73754 18.8261 7.82995 18.9678 7.93467C19.054 7.99628 19.1279 8.06404 19.1957 8.14413C19.2943 8.25502 19.2573 8.34742 19.1156 8.39054C19.0478 8.40903 18.9801 8.41519 18.9123 8.43367C18.8815 8.43983 18.863 8.46447 18.8076 8.50143C18.8692 8.51375 18.9 8.51991 18.9369 8.52607C18.9678 8.53223 19.0047 8.53223 19.0232 8.53223C19.0725 8.61232 19.1033 8.69857 19.1649 8.73553C19.2265 8.77249 19.3189 8.75401 19.399 8.76633C19.4421 8.77249 19.4914 8.79097 19.5283 8.81561C19.5592 8.84026 19.5838 8.87722 19.6023 8.91418C19.7748 9.31461 20.0889 9.59799 20.4031 9.87521C20.4216 9.89369 20.4401 9.91217 20.4586 9.93681C20.4647 9.94913 20.4647 9.96145 20.4709 9.97993C20.4524 10.06 20.3846 10.0539 20.323 10.0539C20.1506 10.0415 19.9842 10.0539 19.8179 10.1155C19.7624 10.1401 19.6824 10.1216 19.6208 10.1031C19.3127 10.0107 19.0047 9.90601 18.6967 9.80744C18.5735 9.77048 18.4441 9.73968 18.3209 9.69655C17.9082 9.54254 17.7788 9.20372 17.9759 8.79713C18.0067 8.72937 18.0437 8.6616 18.0745 8.59384C18.0745 8.58768 18.0683 8.58152 18.056 8.55688C17.865 8.70473 17.7233 8.87106 17.6987 9.12363C17.6679 9.43782 17.7665 9.72119 17.9082 9.99225C18.0437 10.2448 18.2162 10.4851 18.3209 10.7561C18.4811 11.1566 18.6043 11.5755 18.7398 11.9821C18.7768 12.0868 18.8014 12.1915 18.8261 12.3024C18.9616 12.8137 18.9061 13.3189 18.7829 13.8179C18.7213 14.0704 18.6351 14.3169 18.5427 14.5633C18.4626 14.7666 18.4318 14.7727 18.21 14.7173C17.9944 14.6618 17.785 14.6002 17.5693 14.5571C17.3968 14.5202 17.2182 14.4955 17.0457 14.5756C17.1689 14.6742 17.3106 14.705 17.4585 14.7419C17.748 14.8035 18.0375 14.8651 18.3086 15.0007C18.4133 15.0561 18.4811 15.13 18.5119 15.2471C18.5488 15.4011 18.5858 15.5551 18.6351 15.703C18.6721 15.8077 18.6351 15.8693 18.5365 15.8878C18.3579 15.9247 18.1731 15.9617 17.9882 15.9802C17.785 15.9987 17.5755 15.9863 17.3722 15.9863C17.366 15.9987 17.3599 16.0171 17.3537 16.0295C17.3907 16.0603 17.4276 16.0972 17.4708 16.1157C17.8281 16.2451 18.1854 16.3621 18.5427 16.4915C18.5858 16.5038 18.6228 16.5408 18.6536 16.5716C18.746 16.6763 18.8569 16.7317 18.9986 16.7317C19.4113 16.7379 19.824 16.7441 20.2368 16.6701C20.5263 16.6147 20.822 16.5901 21.1239 16.6332C21.2902 16.6578 21.4073 16.7317 21.4935 16.8673C21.5428 16.9474 21.5982 17.0336 21.6352 17.1199C21.6475 17.1445 21.6352 17.1938 21.6167 17.2123C21.5982 17.2307 21.549 17.2369 21.5243 17.2246C21.4504 17.1876 21.3765 17.1445 21.3087 17.1014C21.1609 17.0151 21.0192 17.0151 20.859 17.0891C20.514 17.2492 20.169 17.3971 19.8179 17.5449C19.4729 17.6928 19.1218 17.7359 18.746 17.7051C18.2778 17.6681 17.8158 17.6127 17.366 17.4648C17.0087 17.3478 16.6822 17.163 16.4481 16.855C16.1216 16.4299 15.7951 15.9987 15.4748 15.5674C15.2838 15.3087 15.2284 15.0253 15.3085 14.705C15.4317 14.2245 15.4502 13.7255 15.5179 13.2326C15.5857 12.7275 15.6719 12.2223 15.7397 11.7233C15.7705 11.4892 15.7767 11.2551 15.8013 11.021C15.8383 10.4912 15.8567 9.97993 15.9491 9.48094ZM15.8629 8.96346C15.9122 9.02507 15.8752 9.09283 15.8383 9.15444C15.444 9.7828 15.2961 10.4728 15.3454 11.2059C15.3639 11.5077 15.3886 11.8096 15.3886 12.1114C15.3947 12.555 15.1483 12.8445 14.7602 13.0232C14.6493 13.0725 14.5261 13.0971 14.4029 13.1156C14.3228 13.1279 14.2735 13.0786 14.292 12.9924C14.3598 12.6782 14.4337 12.3702 14.7047 12.1607C14.8156 12.0745 14.8403 11.9821 14.8218 11.8527C14.7972 11.6987 14.7787 11.5385 14.7602 11.3845C14.7294 11.1504 14.7848 10.9286 14.8526 10.713C14.9142 10.5036 15.0189 10.3064 15.099 10.1031C15.1113 10.0785 15.1175 10.0539 15.1298 10.0292C14.9265 10.097 14.791 10.2695 14.5631 10.3064C14.5692 10.2572 14.5692 10.2202 14.5815 10.1955C14.754 9.85056 14.9696 9.52406 15.2407 9.253C15.3639 9.13596 15.5118 9.04355 15.6534 8.95114C15.7212 8.90186 15.8013 8.88954 15.8629 8.96346ZM15.4194 7.49112C15.4255 7.48496 15.444 7.49729 15.4748 7.50345C15.4563 7.54041 15.444 7.57737 15.4255 7.60201C15.2715 7.75602 15.1545 7.92851 15.062 8.12565C15.0312 8.19957 14.982 8.27966 14.9204 8.32278C14.5076 8.6 14.2797 9.00659 14.1441 9.46246C14.0333 9.8444 13.9901 10.2448 13.8916 10.6329C13.8484 10.7931 13.7684 10.9533 13.676 11.095C13.602 11.212 13.4603 11.2613 13.2755 11.2428C13.3618 11.44 13.485 11.5632 13.6205 11.6679C13.7499 11.7726 13.9101 11.8404 14.0579 11.9266C13.9655 12.1176 13.8731 12.3209 13.7684 12.5427C13.4603 12.1361 13.1708 11.748 12.8997 11.3845C13.0846 11.1134 13.2509 10.8732 13.4111 10.6206C13.6205 10.288 13.7314 9.91833 13.7437 9.52406C13.7499 9.33309 13.8053 9.1606 13.8854 8.98811C14.2181 8.31046 14.7417 7.81763 15.4194 7.49112ZM13.5774 6.60403C13.7499 6.60403 13.7745 6.63483 13.7314 6.80116C13.7068 6.89972 13.6821 6.97981 13.8423 7.01061C13.8608 6.89356 13.8731 6.77652 13.8916 6.65947C14.292 6.5917 14.3659 6.65947 14.2612 7.01061C14.2058 7.20775 14.1133 7.39256 14.0086 7.57121C13.9347 7.70674 13.8669 7.70058 13.7376 7.61433C13.5281 7.46648 13.4419 7.23855 13.3618 7.01061C13.3063 6.86276 13.2817 6.70259 13.2262 6.55474C13.1893 6.44385 13.2201 6.36993 13.294 6.296C13.5343 6.04343 14.0209 6.06191 14.2489 6.33297C14.1318 6.47466 13.947 6.50546 13.7745 6.43153C13.6883 6.39457 13.5959 6.36993 13.5035 6.36993C13.448 6.36993 13.3926 6.42537 13.3371 6.45617C13.3926 6.57322 13.4727 6.60403 13.5774 6.60403ZM13.9778 5.21177C14.0456 5.3473 14.0949 5.48899 14.1441 5.63068C14.1749 5.72925 14.1996 5.83397 14.2304 5.96334C14.0456 5.95102 13.9101 5.94486 13.7745 5.93254C13.6205 5.91406 13.5527 5.82165 13.5774 5.6738C13.602 5.50131 13.6636 5.34114 13.7684 5.19945C13.8546 5.0824 13.9101 5.07624 13.9778 5.21177ZM12.0496 5.26105C12.0434 5.24257 12.0373 5.23025 12.0311 5.21177C12.2591 5.1132 12.487 5.01464 12.7396 4.90375C12.5979 5.16249 12.3145 5.30418 12.0496 5.26105ZM12.9429 4.62037C12.7211 4.74358 12.5116 4.89143 12.2529 4.93455C12.0619 4.96536 11.8956 4.90991 11.7416 4.81134C11.7108 4.7867 11.6923 4.74358 11.6492 4.67582C11.7909 4.68814 11.9018 4.6943 12.0065 4.70662C12.2159 4.73742 12.4007 4.70046 12.5794 4.58957C12.7889 4.46636 12.9983 4.34315 13.2016 4.22611C13.3556 4.13986 13.5158 4.12754 13.6821 4.18298C13.7129 4.1953 13.7376 4.22611 13.7745 4.25691C13.756 4.28771 13.7376 4.31235 13.7252 4.31235C13.4295 4.32467 13.1893 4.48484 12.9429 4.62037ZM11.4336 7.78066C11.6738 7.95316 11.8956 8.15029 12.1174 8.34742C12.3268 8.53223 12.5178 8.72937 12.7889 8.81561C12.9244 8.85874 13.0722 8.87106 13.2509 8.90186C13.0846 9.00043 12.9305 9.04355 12.7765 9.03123C12.6164 9.02507 12.4624 8.96346 12.296 8.92034C12.4316 9.1606 12.9429 9.32693 13.5343 9.30229C13.5343 9.36389 13.5527 9.43782 13.5281 9.49326C13.4665 9.63495 13.3987 9.7828 13.3125 9.91217C13.1646 10.1278 12.9552 10.1894 12.6964 10.1278C11.7231 9.89985 11.0763 9.2838 10.645 8.41519C10.6019 8.32894 10.5773 8.23653 10.5649 8.13797C10.5465 8.00244 10.5095 7.88539 10.3863 7.81147C10.3555 7.79299 10.3432 7.74986 10.3062 7.70058C10.7128 7.54041 11.0886 7.53425 11.4336 7.78066ZM9.17269 7.0907C9.32054 7.29399 9.46223 7.48496 9.60392 7.6821C10.5403 8.98195 11.4767 10.2756 12.4131 11.5755C13.0784 12.4995 13.7437 13.4236 14.409 14.3477C15.1113 15.321 15.8259 16.2882 16.5344 17.2554C16.9779 17.8714 17.4276 18.4813 17.865 19.1035C17.9328 19.2021 18.0006 19.2945 18.1361 19.3006C18.2285 19.3068 18.2593 19.3807 18.2655 19.4608C18.2901 19.6456 18.3086 19.8243 18.3394 20.0584C18.093 19.9413 17.8774 19.8366 17.6433 19.7257C17.6679 19.6641 17.6802 19.6148 17.7049 19.5779C17.7788 19.4731 17.7665 19.3807 17.6864 19.276C17.2059 18.6107 16.7315 17.9392 16.251 17.2739C15.6103 16.3744 14.9635 15.4812 14.3228 14.5818C13.7992 13.8548 13.2755 13.1279 12.7519 12.3948C11.6184 10.8116 10.4849 9.23452 9.35134 7.6513C9.27742 7.55273 9.20349 7.45416 9.12957 7.3556C9.0618 7.25703 9.06797 7.17694 9.17269 7.0907ZM10.0413 12.6228C9.57312 12.5858 9.14189 12.4441 8.7045 12.2716C8.23015 12.0868 7.76196 12.1114 7.31225 12.3702C7.29377 12.3825 7.27528 12.3825 7.25064 12.3948C7.1644 12.3024 7.1952 12.2223 7.26296 12.1422C7.41697 11.9636 7.60795 11.8527 7.82972 11.7849C8.38416 11.6186 8.9386 11.4523 9.48687 11.2798C9.59776 11.2428 9.70865 11.1997 9.81337 11.1566C9.8565 11.1381 9.8873 11.1073 9.96123 11.058C9.20965 10.9286 8.53201 11.021 7.85436 11.2859C7.66955 10.9718 7.70035 10.8177 7.97757 10.6145C8.22399 10.4358 8.50737 10.3804 8.79691 10.3742C9.20349 10.3742 9.61008 10.4173 10.0043 10.5282C10.3617 10.6329 10.7128 10.7438 11.0701 10.8547C11.0824 10.8609 11.0886 10.8732 11.1071 10.8917C11.0085 11.0087 10.8545 11.0149 10.7374 11.0888C10.6204 11.1627 10.491 11.2182 10.3678 11.2798C10.2384 11.3475 10.1091 11.4091 9.97971 11.4708C9.8565 11.5324 9.73329 11.5878 9.60392 11.6432C9.47455 11.6925 9.33286 11.7357 9.20349 11.8034C9.31438 11.8589 9.41911 11.8096 9.52384 11.7911C9.64088 11.7726 9.75793 11.7603 9.87498 11.748C9.99203 11.7295 10.1091 11.7172 10.22 11.6925C10.3309 11.674 10.4417 11.6432 10.5649 11.6186C10.5033 11.8157 10.3801 11.8958 9.88114 12.1053C9.91194 12.1238 9.93658 12.1422 9.95506 12.1422C10.3308 12.1299 10.7005 12.1114 11.0331 11.902C11.1194 11.8465 11.2118 11.7973 11.3042 11.7541C11.335 11.7418 11.3966 11.7418 11.4151 11.7603C11.4336 11.7849 11.4397 11.8404 11.4274 11.8712C11.3412 12.0806 11.2056 12.2593 11.0208 12.3825C10.7251 12.5796 10.3986 12.6474 10.0413 12.6228ZM9.85034 15.4073C10.1768 15.2532 10.5218 15.2163 10.873 15.1547C11.0208 15.13 11.0516 15.167 11.0639 15.321C11.0824 15.5797 11.1009 15.8446 11.1255 16.1034C11.1871 16.781 10.9346 17.3601 10.5773 17.9084C10.3493 18.2534 10.0968 18.5614 9.73329 18.777C9.5916 18.8632 9.46839 18.9741 9.33902 19.0789C9.28974 19.122 9.24662 19.1774 9.17269 19.2575C9.45607 19.4054 9.73329 19.3807 9.98587 19.4177C10.029 19.5101 9.99203 19.5594 9.9181 19.5902C9.77025 19.6456 9.6224 19.7072 9.47455 19.7565C9.21581 19.8489 8.95092 19.9228 8.69834 20.0276C8.19319 20.237 7.82356 20.5943 7.55866 21.0625C7.49706 21.1796 7.42929 21.2905 7.36769 21.4075C7.33073 21.4691 7.28144 21.5369 7.20752 21.4937C7.17056 21.4691 7.13976 21.389 7.13976 21.3397C7.17056 20.8839 7.38001 20.5327 7.7558 20.274C8.16854 19.9906 8.43344 19.6148 8.47657 19.1035C8.55049 18.2534 8.66754 17.4032 8.87083 16.5716C9.00636 16.0233 9.34518 15.6475 9.85034 15.4073ZM5.48876 18.2349C5.67358 17.9762 5.74134 17.6804 5.7475 17.3786C5.75982 16.8365 5.91383 16.3313 6.15409 15.857C6.27114 15.6229 6.40051 15.4011 6.54219 15.1485C6.48675 15.1793 6.44979 15.1916 6.41899 15.2163C6.25882 15.358 6.09865 15.4997 5.93847 15.6352C5.90151 15.666 5.85223 15.6906 5.78446 15.7276C5.7783 15.6722 5.77214 15.6414 5.7783 15.6229C6.08016 15.05 6.47443 14.5633 7.05967 14.2553C7.21984 14.169 7.38617 14.1321 7.55866 14.1444C8.10694 14.1813 8.55665 14.4462 8.9386 14.8282C8.98788 14.8775 9.02484 14.9329 8.98172 15.013C8.9386 15.0931 8.88315 15.1362 8.78459 15.1239C8.55665 15.0992 8.33488 15.0808 8.10694 15.0623C7.50322 15.013 7.10279 15.321 6.80093 15.8077C6.573 16.1773 6.43131 16.5777 6.36354 17.0028C6.2773 17.5203 6.03088 17.9453 5.63661 18.2842C5.59349 18.3211 5.53805 18.3458 5.49492 18.3704C5.4826 18.3581 5.47028 18.3396 5.45796 18.3273C5.46412 18.2965 5.47028 18.2657 5.48876 18.2349Z" fill="#131316"/>
        <path d="M13.9719 7.23229C13.861 7.11524 13.7316 7.13988 13.5776 7.17069C13.6885 7.40478 13.8056 7.42326 13.9719 7.23229Z" fill="#131316"/>
        <path d="M34.7816 4.76196H37.5537V5.71067H38.4655V3.93647H37.8741V0.307983H35.1081V1.04723C35.1081 2.67974 34.7939 3.46828 34.221 3.94263H33.876V5.71683H34.7877V4.76196H34.7816ZM35.9767 1.13348H36.9623V3.93647H35.2251C35.7056 3.36355 35.9582 2.49493 35.9767 1.13348Z" fill="#131316"/>
        <path d="M42.5189 3.93647H40.3504V2.80911H41.8843V2.03906H40.3504V1.13348H42.4388V0.307983H39.4448V4.76196H42.5189V3.93647Z" fill="#131316"/>
        <path d="M44.5089 1.13348H46.3262V4.76196H47.2318V0.307983H43.5972V4.76196H44.5089V1.13348Z" fill="#131316"/>
        <path d="M49.3511 4.18289H51.1746L51.4272 4.76197H52.4067L50.423 0.227905H50.1212L48.1313 4.76197H49.1109L49.3511 4.18289ZM50.2629 1.92818L50.8543 3.43132H49.6653L50.2629 1.92818Z" fill="#131316"/>
        <path d="M54.2054 3.19112H54.9693C55.9057 3.19112 56.5771 2.60588 56.5771 1.74959C56.5771 0.880967 55.9118 0.314209 54.9693 0.314209H53.2998V4.76203H54.2115V3.19112H54.2054ZM54.2054 1.11506H54.9693C55.3943 1.11506 55.6408 1.37996 55.6408 1.74959C55.6408 2.13153 55.3943 2.39643 54.9693 2.39643H54.2054V1.11506Z" fill="#131316"/>
        <path d="M58.6901 4.76196H59.6019V1.13348H61.0311V0.307983H57.2671V1.13348H58.6901V4.76196Z" fill="#131316"/>
        <path d="M61.9738 4.76197L62.2264 4.18289H64.0499L64.2963 4.76197H65.2758L63.2922 0.227905H62.9903L61.0005 4.76197H61.9738ZM63.1382 1.92818L63.7296 3.43132H62.5406L63.1382 1.92818Z" fill="#131316"/>
        <path d="M67.0745 2.38405L68.1957 3.78862H68.4914L69.6126 2.38405V4.76197H70.5244V0.227905H70.2287L68.3436 2.63663L66.4646 0.227905H66.1689V4.76197H67.0745V2.38405Z" fill="#131316"/>
        <path d="M74.9171 3.93647H72.7487V2.80911H74.2826V2.03906H72.7487V1.13348H74.837V0.307983H71.8369V4.76196H74.9171V3.93647Z" fill="#131316"/>
        <path d="M76.9064 2.83991H78.8777V4.76196H79.7894V0.307983H78.8777V2.01442H76.9064V0.307983H75.9946V4.76196H76.9064V2.83991Z" fill="#131316"/>
        <path d="M82.0998 4.76196H83.0116V1.13348H84.4408V0.307983H80.6768V1.13348H82.0998V4.76196Z" fill="#131316"/>
        <path d="M37.8801 12.8568V8.40283H34.2393V12.8568H35.151V9.22833H36.9683V12.8568H37.8801Z" fill="#131316"/>
        <path d="M40.0985 11.286H40.8623C41.7987 11.286 42.4702 10.7007 42.4702 9.84443C42.4702 8.97582 41.8049 8.40906 40.8623 8.40906H39.1929V12.8569H40.1046V11.286H40.0985ZM40.0985 9.20991H40.8623C41.2874 9.20991 41.5338 9.47481 41.5338 9.84443C41.5338 10.2264 41.2874 10.4913 40.8623 10.4913H40.0985V9.20991Z" fill="#131316"/>
        <path d="M46.493 12.0313H44.3307V10.904H45.8585V10.1277H44.3307V9.22833H46.4129V8.40283H43.4189V12.8568H46.493V12.0313Z" fill="#131316"/>
        <path d="M48.1995 12.8568H50.9717V13.8055H51.8835V12.0313H51.2921V8.40283H48.526V9.13592C48.526 10.7684 48.2119 11.557 47.6389 12.0313H47.2939V13.8055H48.2057V12.8568H48.1995ZM49.3946 9.22833H50.3803V12.0313H48.6431C49.1236 11.4584 49.3762 10.5898 49.3946 9.22833Z" fill="#131316"/>
        <path d="M53.7684 9.22833H55.5857V12.8568H56.4974V8.40283H52.8628V12.8568H53.7684V9.22833Z" fill="#131316"/>
        <path d="M59.4789 8.40283H57.8032V12.8507H58.715V11.2797H59.4789C60.4152 11.2797 61.0867 10.6945 61.0867 9.83821C61.0867 8.96959 60.4152 8.40283 59.4789 8.40283ZM59.4789 10.4912H58.715V9.20985H59.4789C59.9039 9.20985 60.1503 9.47474 60.1503 9.84437C60.1565 10.2263 59.9039 10.4912 59.4789 10.4912Z" fill="#131316"/>
        <path d="M62.9469 8.40272H62.0352V12.9368H62.3309L64.9798 10.1215V12.8567H65.8916V8.32263H65.5897L62.9469 11.1133V8.40272Z" fill="#131316"/>
        <path d="M70.0805 10.1093H68.1092V8.40283H67.2036V12.8568H68.1092V10.9348H70.0805V12.8568H70.9923V8.40283H70.0805V10.1093Z" fill="#131316"/>
        <path d="M73.2106 11.1133V8.40272H72.2988V12.9368H72.6007L75.2497 10.1215V12.8567H76.1614V8.32263H75.8534L73.2106 11.1133Z" fill="#131316"/>
        <path d="M79.6476 10.7314L77.7625 8.32263H77.4668V12.8567H78.3785V10.4788L79.4997 11.8834H79.7954L80.9166 10.4788V12.8567H81.8222V8.32263H81.5265L79.6476 10.7314Z" fill="#131316"/>
        <path d="M83.695 12.8567L83.9414 12.2776H85.7649L86.0175 12.8567H86.997L85.0134 8.32263H84.7115L82.7217 12.8567H83.695ZM84.8532 10.0229L85.4446 11.526H84.2556L84.8532 10.0229Z" fill="#131316"/>
        <path d="M88.3894 12.8568H89.3011V9.22833H90.7303V8.40283H86.9663V9.22833H88.3894V12.8568Z" fill="#131316"/>
        <path d="M94.6979 12.0313H92.5294V10.904H94.0634V10.1277H92.5294V9.22833H94.6116V8.40283H91.6177V12.8568H94.6979V12.0313Z" fill="#131316"/>
        <path d="M98.4617 12.8569H99.3734V8.40906H96.478V9.23455C96.478 11.1812 96.1331 11.9513 95.4185 12.0375V12.8938C96.5458 12.8138 97.322 12.093 97.3467 9.23455H98.4617V12.8569Z" fill="#131316"/>
        <path d="M104.135 11.3907C104.135 10.5282 103.47 9.93684 102.509 9.93684H101.597V8.40906H100.686V12.8569H102.509C103.464 12.8569 104.135 12.2778 104.135 11.3907ZM102.509 12.0499H101.597V10.7254H102.509C102.953 10.7254 103.205 11.0026 103.205 11.3907C103.205 11.785 102.953 12.0499 102.509 12.0499Z" fill="#131316"/>
        <path d="M107.327 12.9368C108.189 12.9368 108.91 12.5117 109.298 11.8279L108.608 11.3412C108.312 11.8156 107.893 12.0928 107.333 12.0928C106.501 12.0928 105.897 11.4952 105.897 10.6389C105.897 9.77649 106.507 9.16661 107.333 9.16661C107.893 9.16661 108.312 9.44383 108.608 9.91818L109.298 9.43151C108.91 8.7477 108.189 8.32263 107.333 8.32263C106.002 8.32263 104.961 9.32062 104.961 10.6266C104.961 11.9326 106.002 12.9368 107.327 12.9368Z" fill="#131316"/>
        <path d="M110.031 9.22833H111.454V12.8568H112.359V9.22833H113.789V8.40283H110.031V9.22833Z" fill="#131316"/>
        <path d="M118.126 11.5447C118.126 10.9964 117.824 10.6206 117.337 10.4482C117.547 10.2449 117.67 9.9738 117.67 9.6473C117.67 8.91421 117.085 8.40906 116.259 8.40906H114.682V12.8569H116.666C117.528 12.8569 118.126 12.3148 118.126 11.5447ZM115.557 9.18527H116.185C116.561 9.18527 116.764 9.3824 116.764 9.69042C116.764 9.99228 116.561 10.2017 116.185 10.2017H115.557V9.18527ZM115.557 12.0745V10.9533H116.598C116.998 10.9533 117.233 11.1689 117.233 11.5139C117.233 11.8651 116.998 12.0745 116.598 12.0745H115.557Z" fill="#131316"/>
        <path d="M120.67 8.32263L118.68 12.8567H119.66L119.912 12.2776H121.736L121.982 12.8567H122.962L120.978 8.32263H120.67ZM120.226 11.526L120.818 10.0229L121.409 11.526H120.226Z" fill="#131316"/>
        <path d="M38.1018 20.9517V16.4176H37.7938L35.151 19.2083V16.4977H34.2393V21.0318H34.5411L37.1901 18.2164V20.9517H38.1018Z" fill="#131316"/>
        <path d="M41.7246 16.4977V21.0318H42.0203L44.6693 18.2164V20.9517H45.581V16.4176H45.2792L42.6363 19.2083V16.4977H41.7246Z" fill="#131316"/>
        <path d="M47.7986 19.0295H49.77V20.9515H50.6817V16.4976H49.77V18.204H47.7986V16.4976H46.8931V20.9515H47.7986V19.0295Z" fill="#131316"/>
        <path d="M55.7826 20.9515V16.4976H54.8709V18.204H52.8995V16.4976H51.9878V20.9515H52.8995V19.0295H54.8709V20.9515H55.7826Z" fill="#131316"/>
        <path d="M61.5613 18.7277C61.5613 17.4217 60.4955 16.4237 59.1895 16.4237C57.8835 16.4237 56.8301 17.4217 56.8301 18.7277C56.8301 20.0337 57.8835 21.0317 59.1895 21.0317C60.4955 21.0317 61.5613 20.0337 61.5613 18.7277ZM57.7665 18.7277C57.7665 17.8714 58.364 17.2615 59.1957 17.2615C60.0088 17.2615 60.6249 17.8652 60.6249 18.7277C60.6249 19.5902 60.0088 20.1877 59.1957 20.1877C58.364 20.1877 57.7665 19.5902 57.7665 18.7277Z" fill="#131316"/>
        <path d="M65.2572 18.5428C65.4666 18.3395 65.5899 18.0684 65.5899 17.7419C65.5899 17.0088 65.0046 16.5037 64.1791 16.5037H62.6021V20.9576H64.5857C65.4482 20.9576 66.0519 20.4155 66.0519 19.6516C66.0457 19.0972 65.7439 18.7153 65.2572 18.5428ZM63.4768 17.2799H64.1052C64.481 17.2799 64.6843 17.477 64.6843 17.785C64.6843 18.0869 64.481 18.2963 64.1052 18.2963H63.4768V17.2799ZM64.5179 20.1691H63.4768V19.0479H64.5179C64.9184 19.0479 65.1525 19.2635 65.1525 19.6085C65.1525 19.9597 64.9122 20.1691 64.5179 20.1691Z" fill="#131316"/>
        <path d="M68.5904 16.4176L66.6006 20.9517H67.5801L67.8265 20.3726H69.65L69.9026 20.9517H70.8821L68.8984 16.4176H68.5904ZM68.1469 19.621L68.7383 18.1179L69.3296 19.621H68.1469Z" fill="#131316"/>
        <path d="M75.3909 16.4976H74.4791V20.126H72.6803V16.4976H71.7686V20.9515H75.0644V21.9002H75.9761V20.126H75.3909V16.4976Z" fill="#131316"/>
        <path d="M76.9746 16.4977V21.0318H77.2703L79.9193 18.2164V20.9517H80.831V16.4176H80.5292L77.8864 19.2083V16.4977H76.9746Z" fill="#131316"/>
        <path d="M84.2252 16.4176C82.9192 16.4176 81.8657 17.4156 81.8657 18.7216C81.8657 20.0276 82.9192 21.0256 84.2252 21.0256C85.5312 21.0256 86.5969 20.0276 86.5969 18.7216C86.5969 17.4156 85.5312 16.4176 84.2252 16.4176ZM84.2313 20.1878C83.3997 20.1878 82.8021 19.5902 82.8021 18.7278C82.8021 17.8715 83.3997 17.2616 84.2313 17.2616C85.0445 17.2616 85.6605 17.8653 85.6605 18.7278C85.6605 19.5902 85.0445 20.1878 84.2313 20.1878Z" fill="#131316"/>
        <path d="M91.4268 20.9515V16.4976H90.5151V18.204H88.5499V16.4976H87.6382V20.9515H88.5499V19.0295H90.5151V20.9515H91.4268Z" fill="#131316"/>
        <path d="M95.6157 18.204H93.6505V16.4976H92.7388V20.9515H93.6505V19.0295H95.6157V20.9515H96.5274V16.4976H95.6157V18.204Z" fill="#131316"/>
        <path d="M99.9341 16.4176C98.6281 16.4176 97.5747 17.4156 97.5747 18.7216C97.5747 20.0276 98.6281 21.0256 99.9341 21.0256C101.24 21.0256 102.306 20.0276 102.306 18.7216C102.312 17.4156 101.246 16.4176 99.9341 16.4176ZM99.9403 20.1878C99.1086 20.1878 98.5111 19.5902 98.5111 18.7278C98.5111 17.8715 99.1086 17.2616 99.9403 17.2616C100.753 17.2616 101.37 17.8653 101.37 18.7278C101.37 19.5902 100.76 20.1878 99.9403 20.1878Z" fill="#131316"/>
        <path d="M103.347 20.9515H104.258V17.3231H106.217V16.4976H103.347V20.9515Z" fill="#131316"/>
        <path d="M109.156 16.4176C107.85 16.4176 106.797 17.4156 106.797 18.7216C106.797 20.0276 107.85 21.0256 109.156 21.0256C110.462 21.0256 111.528 20.0276 111.528 18.7216C111.534 17.4156 110.468 16.4176 109.156 16.4176ZM109.169 20.1878C108.337 20.1878 107.739 19.5902 107.739 18.7278C107.739 17.8715 108.337 17.2616 109.169 17.2616C109.982 17.2616 110.598 17.8653 110.598 18.7278C110.598 19.5902 109.982 20.1878 109.169 20.1878Z" fill="#131316"/>
        <path d="M116.579 16.4976H114.904V20.9515H115.816V19.3806H116.579C117.516 19.3806 118.187 18.7954 118.187 17.9391C118.181 17.0643 117.516 16.4976 116.579 16.4976ZM116.579 18.5798H115.816V17.2984H116.579C117.005 17.2984 117.251 17.5633 117.251 17.9329C117.251 18.321 117.005 18.5798 116.579 18.5798Z" fill="#131316"/>
        <path d="M120.343 16.4176L118.354 20.9517H119.333L119.579 20.3726H121.403L121.655 20.9517H122.635L120.651 16.4176H120.343ZM119.894 19.621L120.485 18.1179L121.076 19.621H119.894Z" fill="#131316"/>
        <path d="M126.017 18.5983C126.276 18.3889 126.423 18.0932 126.423 17.7359C126.423 16.972 125.752 16.4237 124.902 16.4237C124.187 16.4237 123.596 16.818 123.294 17.3971L123.928 17.8468C124.181 17.4833 124.501 17.2677 124.896 17.2677C125.271 17.2677 125.524 17.4833 125.524 17.7913C125.524 18.0809 125.321 18.3026 124.951 18.3026H124.261V19.0542H125.136C125.536 19.0542 125.764 19.2883 125.764 19.5963C125.764 19.9783 125.407 20.1939 124.97 20.1939C124.52 20.1939 124.144 19.9844 123.855 19.547L123.214 20.0029C123.54 20.6251 124.163 21.0317 124.976 21.0317C125.918 21.0317 126.67 20.4711 126.67 19.6333C126.664 19.1589 126.423 18.8016 126.017 18.5983Z" fill="#131316"/>
        <path d="M130.385 18.5428C130.595 18.3395 130.718 18.0684 130.718 17.7419C130.718 17.0088 130.133 16.5037 129.307 16.5037H127.73V20.9576H129.714C130.576 20.9576 131.18 20.4155 131.18 19.6516C131.174 19.0972 130.866 18.7153 130.385 18.5428ZM128.605 17.2799H129.233C129.609 17.2799 129.812 17.477 129.812 17.785C129.812 18.0869 129.609 18.2963 129.233 18.2963H128.605V17.2799ZM129.64 20.1691H128.599V19.0479H129.64C130.04 19.0479 130.274 19.2635 130.274 19.6085C130.274 19.9597 130.04 20.1691 129.64 20.1691Z" fill="#131316"/>
        <path d="M133.102 19.2083V16.4977H132.196V21.0318H132.492L135.141 18.2164V20.9517H136.053V16.4176H135.751L133.102 19.2083Z" fill="#131316"/>
        <path d="M136.939 17.3231H138.363V20.9515H139.274V17.3231H140.703V16.4976H136.939V17.3231Z" fill="#131316"/>
        <path d="M142.503 19.2083V16.4977H141.597V21.0318H141.893L144.542 18.2164V20.9517H145.454V16.4176H145.146L142.503 19.2083Z" fill="#131316"/>
        <path d="M148.429 16.4976C147.425 16.4976 146.71 17.1136 146.71 18.0377C146.71 18.6044 146.988 19.0603 147.431 19.3252L146.372 20.9515H147.388L148.294 19.5778C148.343 19.5839 148.38 19.5839 148.429 19.5839H149.088V20.9515H150V16.4976H148.429ZM149.094 18.7769H148.423C147.942 18.7769 147.647 18.4689 147.647 18.0377C147.647 17.6126 147.942 17.3046 148.423 17.3046H149.094V18.7769Z" fill="#131316"/>
        <path d="M34.2393 29.0464H35.151V25.4179H37.11V24.5924H34.2393V29.0464Z" fill="#131316"/>
        <path d="M40.0552 24.5123C38.7492 24.5123 37.6958 25.5103 37.6958 26.8163C37.6958 28.1223 38.7492 29.1203 40.0552 29.1203C41.3612 29.1203 42.427 28.1223 42.427 26.8163C42.427 25.5103 41.3612 24.5123 40.0552 24.5123ZM40.0614 28.2825C39.2297 28.2825 38.6322 27.6849 38.6322 26.8225C38.6322 25.9662 39.2297 25.3563 40.0614 25.3563C40.8746 25.3563 41.4906 25.96 41.4906 26.8225C41.4906 27.6849 40.8746 28.2825 40.0614 28.2825Z" fill="#131316"/>
        <path d="M45.1371 24.5924H43.4614V29.0464H44.3732V27.4755H45.1371C46.0734 27.4755 46.7449 26.8902 46.7449 26.0339C46.7449 25.1592 46.0734 24.5924 45.1371 24.5924ZM45.1371 26.6746H44.3732V25.3933H45.1371C45.5621 25.3933 45.8085 25.6582 45.8085 26.0278C45.8147 26.4159 45.5621 26.6746 45.1371 26.6746Z" fill="#131316"/>
        <path d="M49.9058 24.5123C48.5998 24.5123 47.5464 25.5103 47.5464 26.8163C47.5464 28.1223 48.5998 29.1203 49.9058 29.1203C51.2118 29.1203 52.2776 28.1223 52.2776 26.8163C52.2776 25.5103 51.2118 24.5123 49.9058 24.5123ZM49.912 28.2825C49.0803 28.2825 48.4828 27.6849 48.4828 26.8225C48.4828 25.9662 49.0803 25.3563 49.912 25.3563C50.7252 25.3563 51.3412 25.96 51.3412 26.8225C51.3412 27.6849 50.7252 28.2825 49.912 28.2825Z" fill="#131316"/>
        <path d="M56.8671 24.5924H54.101V25.3255C54.101 26.958 53.7869 27.7465 53.2078 28.2209H52.8628V29.9951H53.7745V29.0464H56.5467V29.9951H57.4585V28.2209H56.8671V24.5924ZM55.9615 28.2209H54.2242C54.7109 27.648 54.9573 26.7794 54.982 25.4179H55.9676V28.2209H55.9615Z" fill="#131316"/>
        <path d="M60.1749 24.5123L58.1851 29.0464H59.1646L59.411 28.4673H61.2345L61.487 29.0464H62.4665L60.4829 24.5123H60.1749ZM59.7252 27.7157L60.3166 26.2126L60.908 27.7157H59.7252Z" fill="#131316"/>
        <path d="M67.8512 26.9211L65.9661 24.5123H65.6704V29.0464H66.5822V26.6685L67.7033 28.073H67.999L69.1202 26.6685V29.0464H70.0258V24.5123H69.7301L67.8512 26.9211Z" fill="#131316"/>
        <path d="M73.4449 24.5123C72.1389 24.5123 71.0854 25.5103 71.0854 26.8163C71.0854 28.1223 72.1389 29.1203 73.4449 29.1203C74.7509 29.1203 75.8166 28.1223 75.8166 26.8163C75.8166 25.5103 74.7509 24.5123 73.4449 24.5123ZM73.4511 28.2825C72.6194 28.2825 72.0218 27.6849 72.0218 26.8225C72.0218 25.9662 72.6194 25.3563 73.4511 25.3563C74.2642 25.3563 74.8803 25.96 74.8803 26.8225C74.8803 27.6849 74.2642 28.2825 73.4511 28.2825Z" fill="#131316"/>
        <path d="M79.0383 25.3563C79.5989 25.3563 80.0178 25.6335 80.3135 26.1079L81.0034 25.6212C80.6153 24.9374 79.8946 24.5123 79.0383 24.5123C77.7076 24.5123 76.6665 25.5103 76.6665 26.8163C76.6665 28.1223 77.7138 29.1203 79.0321 29.1203C79.8946 29.1203 80.6153 28.6953 81.0034 28.0114L80.3135 27.5248C80.0178 27.9991 79.5989 28.2763 79.0383 28.2763C78.2066 28.2763 77.6029 27.6788 77.6029 26.8225C77.6029 25.96 78.2128 25.3563 79.0383 25.3563Z" fill="#131316"/>
        <path d="M85.6919 24.5924H84.6076L82.9073 26.6561V24.5924H81.9956V29.0464H82.9073V26.7239L84.8171 29.0464H85.9136L83.9854 26.6931L85.6919 24.5924Z" fill="#131316"/>
        <path d="M89.4618 26.6377C89.6712 26.4344 89.7944 26.1634 89.7944 25.8369C89.7944 25.1038 89.2092 24.5986 88.3837 24.5986H86.8066V29.0526H88.7903C89.6528 29.0526 90.2565 28.5105 90.2565 27.7466C90.2503 27.1922 89.9485 26.8102 89.4618 26.6377ZM87.6814 25.3748H88.3098C88.6856 25.3748 88.8889 25.572 88.8889 25.88C88.8889 26.1819 88.6856 26.3913 88.3098 26.3913H87.6814V25.3748ZM88.7225 28.2641H87.6814V27.1429H88.7225C89.123 27.1429 89.3571 27.3585 89.3571 27.7035C89.3509 28.0546 89.1168 28.2641 88.7225 28.2641Z" fill="#131316"/>
        <path d="M93.0774 26.1264H92.1656V24.5924H91.2539V29.0464H93.0774C94.0322 29.0464 94.7037 28.4673 94.7037 27.5802C94.7037 26.7178 94.0384 26.1264 93.0774 26.1264ZM93.0774 28.2394H92.1656V26.921H93.0774C93.5209 26.921 93.7735 27.1983 93.7735 27.5864C93.7735 27.9745 93.5209 28.2394 93.0774 28.2394Z" fill="#131316"/>
        <path d="M96.3917 24.5924H95.48V29.0464H96.3917V24.5924Z" fill="#131316"/>
    </g>
</svg>
