<svg width="130" height="45" viewBox="0 0 130 45" fill="none" xmlns="http://www.w3.org/2000/svg">
    <path fill-rule="evenodd" clip-rule="evenodd" d="M68.0444 10.5133H69.826L69.1371 8.20093H68.7333L68.0444 10.5133ZM70.1928 11.7268H67.6962L67.1646 13.5267H65.8145L67.898 6.86719H70.0187L72.1115 13.5267H70.7243L70.1928 11.7268Z" fill="white"/>
    <path fill-rule="evenodd" clip-rule="evenodd" d="M74.4309 8.10844V13.5267H73.0381V6.86719H77.8535V8.10844H74.4309Z" fill="white"/>
    <path fill-rule="evenodd" clip-rule="evenodd" d="M83.9655 12.2854V13.5267H78.9648V6.86719H83.8636V8.10844H80.3465V9.50693H83.0839V10.7186H80.3465V12.2854H83.9655Z" fill="white"/>
    <path fill-rule="evenodd" clip-rule="evenodd" d="M91.0032 6.86719V13.5267H89.6104V10.7371H86.6545V13.5267H85.2617V6.86719H86.6545V9.46069H89.6104V6.86719H91.0032Z" fill="white"/>
    <path fill-rule="evenodd" clip-rule="evenodd" d="M97.3004 8.08994H95.2205V13.5267H93.824V8.08994H91.7441V6.86719H97.3004V8.08994Z" fill="white"/>
    <path fill-rule="evenodd" clip-rule="evenodd" d="M103.782 11.4826C103.578 12.796 102.569 13.7117 101.023 13.7117C99.0038 13.7117 97.8555 12.3058 97.8555 10.2894C97.8555 8.27308 99.013 6.86719 101.023 6.86719C102.495 6.86719 103.486 7.69962 103.717 8.91128H102.273C102.115 8.38407 101.68 8.09734 101.023 8.09734C99.8372 8.09734 99.2723 9.05927 99.2723 10.2894C99.2723 11.5103 99.8372 12.4815 101.023 12.4815C101.736 12.4815 102.217 12.1115 102.347 11.4826H103.782Z" fill="white"/>
    <path fill-rule="evenodd" clip-rule="evenodd" d="M109.894 8.08994H107.814V13.5267H106.418V8.08994H104.338V6.86719H109.894V8.08994Z" fill="white"/>
    <path fill-rule="evenodd" clip-rule="evenodd" d="M114.936 11.5214C114.936 10.9609 114.587 10.6723 113.871 10.6723H112.222V12.3428H113.852C114.55 12.3428 114.936 12.0801 114.936 11.5214ZM114.747 8.76144C114.747 8.26753 114.426 8.0252 113.795 8.0252H112.222V9.50878H113.804C114.437 9.50693 114.747 9.2646 114.747 8.76144ZM116.377 11.5954C116.377 12.7053 115.651 13.5267 114.06 13.5267H110.82V6.86719H113.974C115.463 6.86719 116.188 7.67927 116.188 8.6301C116.188 9.23685 115.915 9.75851 115.482 9.9731V10.1599C115.962 10.356 116.377 10.9332 116.377 11.5954Z" fill="white"/>
    <path fill-rule="evenodd" clip-rule="evenodd" d="M122.361 10.2894C122.361 9.06852 121.792 8.09734 120.544 8.09734C119.305 8.09734 118.727 9.06852 118.727 10.2894C118.727 11.5103 119.305 12.4815 120.544 12.4815C121.792 12.4815 122.361 11.5103 122.361 10.2894ZM123.785 10.2894C123.785 12.2318 122.648 13.7117 120.544 13.7117C118.438 13.7117 117.303 12.2318 117.303 10.2894C117.303 8.34707 118.438 6.86719 120.544 6.86719C122.648 6.86719 123.785 8.34707 123.785 10.2894Z" fill="white"/>
    <path fill-rule="evenodd" clip-rule="evenodd" d="M67.6518 19.0762V23.7304H67.8351L70.315 19.0762H72.1115V25.7357H70.8207V20.9797H70.6373L68.1018 25.7357H66.3701V19.0762H67.6518Z" fill="white"/>
    <path fill-rule="evenodd" clip-rule="evenodd" d="M79.5198 19.0762V25.7357H78.127V22.9461H75.1711V25.7357H73.7783V19.0762H75.1711V21.6697H78.127V19.0762H79.5198Z" fill="white"/>
    <path fill-rule="evenodd" clip-rule="evenodd" d="M86.7434 19.0762V25.7357H85.3506V22.9461H82.3947V25.7357H81.002V19.0762H82.3947V21.6697H85.3506V19.0762H86.7434Z" fill="white"/>
    <path fill-rule="evenodd" clip-rule="evenodd" d="M92.9125 22.4984C92.9125 21.2775 92.3439 20.3063 91.0956 20.3063C89.8566 20.3063 89.2787 21.2775 89.2787 22.4984C89.2787 23.7193 89.8566 24.6905 91.0956 24.6905C92.3439 24.6905 92.9125 23.7193 92.9125 22.4984ZM94.3368 22.4984C94.3368 24.4408 93.1996 25.9206 91.0956 25.9206C88.9898 25.9206 87.8545 24.4408 87.8545 22.4984C87.8545 20.5561 88.9898 19.0762 91.0956 19.0762C93.1996 19.0762 94.3368 20.5561 94.3368 22.4984Z" fill="white"/>
    <path fill-rule="evenodd" clip-rule="evenodd" d="M99.7481 23.7304C99.7481 23.1699 99.3999 22.8813 98.6832 22.8813H97.0348V24.5517H98.6647C99.3629 24.5517 99.7481 24.2891 99.7481 23.7304ZM99.5592 20.9704C99.5592 20.4765 99.2388 20.2342 98.6073 20.2342H97.0348V21.7178H98.6165C99.2499 21.7159 99.5592 21.4736 99.5592 20.9704ZM101.189 23.8044C101.189 24.9143 100.463 25.7357 98.8721 25.7357H95.6328V19.0762H98.7869C100.276 19.0762 101 19.8883 101 20.8391C101 21.4458 100.728 21.9675 100.295 22.1821V22.3689C100.774 22.565 101.189 23.1422 101.189 23.8044Z" fill="white"/>
    <path fill-rule="evenodd" clip-rule="evenodd" d="M103.975 22.7222H105.757L105.068 20.4099H104.664L103.975 22.7222ZM106.123 23.9357H103.627L103.095 25.7357H101.745L103.829 19.0762H105.949L108.042 25.7357H106.655L106.123 23.9357Z" fill="white"/>
    <path fill-rule="evenodd" clip-rule="evenodd" d="M114.115 25.7615H108.968V19.0762H110.34V24.5166H113.139V19.0762H114.511V24.5166H115.45V27.4005H114.115V25.7615Z" fill="white"/>
    <path fill-rule="evenodd" clip-rule="evenodd" d="M117.843 19.0762V23.7304H118.027L120.505 19.0762H122.303V25.7357H121.012V20.9797H120.829L118.293 25.7357H116.562V19.0762H117.843Z" fill="white"/>
    <path fill-rule="evenodd" clip-rule="evenodd" d="M128.578 17.4102C128.504 18.2851 127.878 18.829 126.835 18.829C125.794 18.829 125.166 18.2851 125.094 17.4102H126.107C126.144 17.7228 126.383 17.9818 126.835 17.9818C127.278 17.9818 127.516 17.7339 127.563 17.4102H128.578ZM125.251 19.1601V23.7552H125.435L127.915 19.1601H129.711V25.7345H128.42V21.0377H128.235L125.701 25.7345H123.97V19.1601H125.251Z" fill="white"/>
    <path fill-rule="evenodd" clip-rule="evenodd" d="M66.3701 31.4727H68.5463L69.6298 34.1309H69.815L70.8985 31.4727H73.0376V38.1321H71.7393V32.9377H71.5522L70.3391 35.9031H69.0686L67.8555 32.9377H67.6684V38.1321H66.3701V31.4727Z" fill="white"/>
    <path fill-rule="evenodd" clip-rule="evenodd" d="M79.2075 34.7103C79.2075 33.4894 78.6389 32.5182 77.3906 32.5182C76.1515 32.5182 75.5737 33.4894 75.5737 34.7103C75.5737 35.9312 76.1515 36.9024 77.3906 36.9024C78.6389 36.9024 79.2075 35.9312 79.2075 34.7103ZM80.6317 34.7103C80.6317 36.6527 79.4945 38.1325 77.3906 38.1325C75.2847 38.1325 74.1494 36.6527 74.1494 34.7103C74.1494 32.768 75.2847 31.2881 77.3906 31.2881C79.4945 31.2881 80.6317 32.768 80.6317 34.7103Z" fill="white"/>
    <path fill-rule="evenodd" clip-rule="evenodd" d="M87.4843 35.9035C87.2805 37.2169 86.2712 38.1325 84.7247 38.1325C82.7059 38.1325 81.5576 36.7267 81.5576 34.7103C81.5576 32.694 82.7152 31.2881 84.7247 31.2881C86.1971 31.2881 87.1879 32.1205 87.4195 33.3322H85.9748C85.8174 32.805 85.3822 32.5182 84.7247 32.5182C83.5393 32.5182 82.9745 33.4802 82.9745 34.7103C82.9745 35.9312 83.5393 36.9024 84.7247 36.9024C85.4377 36.9024 85.9193 36.5324 86.0489 35.9035H87.4843Z" fill="white"/>
    <path fill-rule="evenodd" clip-rule="evenodd" d="M88.7803 31.4727H90.1786V34.0754H91.7251L92.9938 31.4727H94.4365L92.8993 34.7099L94.5217 38.1321H93.0771L91.7362 35.3333H90.1786V38.1321H88.7803V31.4727Z" fill="white"/>
    <path fill-rule="evenodd" clip-rule="evenodd" d="M99.5636 36.1269C99.5636 35.5664 99.2154 35.2778 98.4986 35.2778H96.8503V36.9482H98.4801C99.1783 36.9482 99.5636 36.6856 99.5636 36.1269ZM99.3747 33.3669C99.3747 32.873 99.0542 32.6307 98.4227 32.6307H96.8503V34.1143H98.4319C99.0654 34.1124 99.3747 33.8701 99.3747 33.3669ZM101.004 36.2009C101.004 37.3108 100.278 38.1321 98.6875 38.1321H95.4482V31.4727H98.6023C100.091 31.4727 100.816 32.2847 100.816 33.2356C100.816 33.8423 100.543 34.364 100.11 34.5786V34.7654C100.59 34.9615 101.004 35.5386 101.004 36.2009Z" fill="white"/>
    <path fill-rule="evenodd" clip-rule="evenodd" d="M108.129 38.1321H109.524V31.4727H108.129V38.1321ZM105.955 35.9308C105.955 35.3056 105.618 34.9522 104.69 34.9522H103.51V36.9112H104.69C105.618 36.9112 105.955 36.5653 105.955 35.9308ZM102.115 38.1321V31.4727H103.51V33.7295H104.904C106.469 33.7295 107.386 34.5601 107.386 35.9216C107.386 37.3016 106.468 38.1321 104.904 38.1321H102.115Z" fill="white"/>
    <path fill-rule="evenodd" clip-rule="evenodd" d="M11.142 39.2374C10.8515 39.597 10.4078 39.7184 10.1457 39.5087C9.91516 39.3242 9.90884 38.9409 10.1094 38.6066C9.94358 38.6492 9.79674 38.7391 9.69884 38.881C9.45094 39.239 9.59463 39.772 10.0241 40.0717C10.4536 40.3729 11.0046 40.324 11.2525 39.9676C11.4262 39.72 11.4057 39.3857 11.2336 39.1049C11.2067 39.1491 11.1767 39.1948 11.142 39.2374ZM25.8405 13.8468C25.3226 13.3516 25.4758 12.3738 25.4758 12.3738C25.2579 12.5567 24.98 13.8341 25.441 14.4807C25.9747 15.2314 26.4532 15.3355 26.8763 16.1524C26.9284 16.0357 26.8621 15.744 26.7516 15.5248C26.5858 15.192 26.5211 14.916 26.9126 14.8025C28.0195 14.4807 29.049 16.0767 29.6537 16.0499C30.5 16.0136 30.6895 15.2551 30.7258 15.2188C30.7621 15.1825 30.2806 15.5468 29.7358 15.4822C28.8737 15.3781 28.4742 14.4098 27.5047 14.2111C26.8842 14.0865 26.36 14.3435 25.8405 13.8468ZM25.2516 31.6281C24.9642 32.0492 25.1837 32.6437 25.9463 32.8661C26.6332 33.0664 27.0879 33.2746 27.4242 33.6136C27.9184 34.1072 28.149 34.1687 28.2674 34.1656L7.16619 4.91272L6.88672 5.11616C6.88672 5.11616 19.0636 21.9986 24.4795 29.5101C24.6816 29.7893 25.5058 31.2543 25.2516 31.6281ZM25.1695 32.9607C24.3674 32.9812 23.4468 33.2667 22.52 32.4087C21.3184 31.2985 20.0663 32.0082 20.0663 32.0082C20.0663 32.0082 20.8573 32.7967 20.4168 33.1216C19.7 33.6515 20.2273 34.2728 20.1642 34.5157C20.0994 34.757 19.3779 34.8075 18.17 34.2555C17.4831 33.9385 16.8547 33.9495 16.441 34.0158C16.1284 34.0678 16.2326 34.2949 16.302 34.3596C16.302 34.3596 16.8105 34.8248 17.0078 34.9541C17.1673 35.0551 17.5715 35.391 17.7231 35.2821C17.8699 35.1765 17.5494 34.5819 17.5494 34.5819C17.5494 34.5819 19.9305 35.3768 20.7626 35.3768C21.7305 35.3768 20.8242 33.7666 21.5852 33.6909C21.9689 33.6515 22.4489 34.2508 23.2384 34.3643C23.7895 34.4447 24.32 34.2097 24.8616 34.0741C25.4379 33.9306 25.6558 34.645 25.7363 35.2743C25.7505 35.3768 25.7711 35.637 25.8816 35.8278C26.0711 34.921 26.3253 32.9339 25.1695 32.9607ZM31.1948 34.8232C30.8806 33.9779 30.2821 34.3422 30.0137 34.2492C29.7453 34.1561 29.3979 33.8218 29.2858 32.9244C29.1737 32.0255 28.4111 32.5113 28.4111 32.5113C28.4111 32.5113 29.2937 34.2823 29.649 35.2254C30.0058 36.1669 30.3058 35.4367 30.74 35.954C31.1774 36.4712 31.1269 39.127 30.879 39.9818C30.549 41.1141 29.8874 41.9121 29.2132 42.4499C29.8274 42.3789 30.9721 41.174 31.2942 40.3839C31.6637 39.4771 31.4521 38.6397 31.4521 38.6397L31.9685 38.594L31.6527 37.7707L32.1516 37.695C32.1548 37.695 31.5074 35.6654 31.1948 34.8232ZM10.6794 36.5028C10.0478 36.3293 9.36726 36.2978 8.69305 36.3877C7.99673 36.4918 7.43619 36.6889 6.85356 36.6589C6.27408 36.6447 5.73092 36.4176 5.37723 35.9981C5.21776 35.8136 5.1025 35.5976 5.01881 35.3689C5.29829 34.7901 5.84303 34.2034 6.81251 33.6641C10.2025 31.7795 9.08147 29.6536 8.86989 27.1903C8.76252 25.9397 9.01673 24.7994 9.65937 24.2222C10.5673 23.4037 12.0925 23.5047 12.0925 23.5047C11.9189 23.2823 9.87568 22.5506 8.31567 23.0032C6.64514 23.4889 6.33566 24.6985 6.04829 25.558C5.80039 26.304 5.47513 27.1808 3.9988 27.8006C1.5151 28.843 1.68247 30.797 1.68247 30.797C1.68247 30.797 0.782467 28.8667 3.19511 27.236C6.25987 25.1653 5.08039 23.5741 6.10513 22.6247C6.90566 21.885 7.86251 22.0033 9.32463 22.4023C9.06252 22.0916 5.17829 20.4625 4.72828 23.9226C4.34617 26.8638 1.53721 26.4538 1.04931 29.2215C0.706677 31.1849 2.56353 32.8298 2.56353 32.8298C2.56353 32.8298 1.07931 29.8571 3.9988 28.6553C6.01829 27.8258 7.16935 26.867 7.46935 25.9207C7.45198 26.2235 7.45514 26.5452 7.46304 26.8969C7.49462 28.228 8.12778 29.2672 7.93357 31.1392C7.8262 32.169 5.94408 33.1973 4.89407 34.2555C4.93039 33.7808 5.05828 33.3203 5.29513 32.9402C5.56039 32.5349 5.99461 32.0996 6.18408 31.6202C6.4004 31.1471 6.4304 30.644 6.36092 30.2371C6.30408 29.906 6.18724 29.6426 6.0625 29.4202C6.01513 29.4391 5.97092 29.4581 5.92671 29.4723C6.13987 29.9706 6.25829 30.7276 5.84776 31.4625C5.64408 31.8836 5.2825 32.1817 4.89723 32.6753C4.5467 33.1642 4.30354 33.7792 4.27196 34.4495C4.26249 34.6624 4.28302 34.88 4.31933 35.0992C3.88986 36.2237 4.37933 37.6761 4.77091 38.3479C5.23986 39.1475 5.68039 39.7326 5.45144 40.6615C5.22092 41.5904 6.02776 41.2687 6.59935 41.2781C6.77935 41.2797 6.96724 41.2813 7.13777 41.2813C7.51356 41.2797 7.6683 41.0069 7.43777 40.6378C7.0383 40.0007 6.40356 39.0576 5.89829 38.6539C5.44671 38.2928 4.70933 37.3434 4.77723 36.2442C5.44355 37.0358 6.19356 37.285 6.81251 37.3418C7.54041 37.4064 8.22725 37.132 8.7862 37.0437C9.37358 36.9507 9.97516 36.9664 10.5199 37.0989C11.0631 37.2345 11.5573 37.4837 11.9378 37.8165C12.3246 38.1477 12.5378 38.5877 12.6499 39.0119C12.8599 39.8477 12.2852 40.6315 11.821 41.0431C11.8494 41.0747 11.8857 41.1046 11.9173 41.133C12.7289 40.6441 13.1662 39.791 13.0083 38.7722C12.8599 37.7707 11.9536 36.8119 10.6794 36.5028ZM10.0178 20.8458C11.0141 21.8976 12.0846 21.475 12.5631 21.5318C13.0415 21.587 13.5926 22.8139 13.302 24.003C13.0115 25.1921 12.8962 24.9871 12.6973 25.7331C12.4478 26.673 13.6115 27.3464 13.3415 28.2122C13.2673 28.4535 13.0999 28.7989 13.302 29.0685C13.6162 29.4912 14.1262 28.9345 14.7689 29.0291C15.2726 29.1017 15.7162 28.9329 15.9357 28.8004C15.8599 28.433 14.4089 28.6585 14.0836 28.0655C13.9415 27.8037 13.561 25.1007 14.4026 23.8926C15.1762 22.7855 14.4578 22.4386 13.9289 21.5444C14.6536 21.1454 16.3605 20.2969 16.3605 20.2969C16.9194 20.9404 17.3142 21.4955 17.6536 22.2714C17.8336 22.6562 17.9568 23.071 17.9426 23.4873C17.9536 23.91 17.7957 24.3263 17.5289 24.7032C17.8826 24.648 18.2063 24.0156 18.3042 23.5283C18.3973 23.0394 18.3263 22.5364 18.1936 22.0711C17.701 20.5635 16.5547 19.4847 16.5547 19.4847C16.5547 19.4847 15.0041 20.0162 13.5657 20.7969C13.1125 19.9452 12.6562 20.0966 12.0894 20.1455C11.5273 20.1944 11.1878 19.6014 11.1878 19.6014C11.6236 19.7402 12.2299 19.7639 13.0431 19.4437C14.8652 18.7246 14.1736 17.2185 14.1736 17.2185C14.1736 17.2185 14.2115 18.3114 13.122 18.466C12.4446 18.5606 10.6667 18.1206 10.6667 18.1206C10.6667 18.1206 12.091 17.955 12.3815 17.1349C12.7762 16.0121 13.9068 16.4536 13.9068 16.4536C13.9068 16.4536 13.3036 15.744 12.3736 16.2991C11.8068 16.6413 10.8657 16.7501 9.71147 16.165C8.55883 15.5815 8.14041 16.5498 7.90672 16.5735C7.67462 16.6003 7.49304 16.2187 7.62251 15.8212C7.75356 15.4222 9.07831 15.0469 11.0725 14.9712C12.3894 14.9207 13.0352 15.1794 13.321 15.3623C13.3241 15.2535 12.9689 14.7662 11.8841 14.4997C10.7994 14.2316 10.8704 13.7884 10.921 13.0235C10.9715 12.2587 9.85989 12.5646 9.58989 12.4684C9.31989 12.3722 9.57095 11.7714 9.57095 11.7714C9.18252 11.8833 8.88568 12.1972 8.89989 12.6655C8.90778 12.9778 9.20778 13.2033 9.50621 13.35C9.80463 13.4982 9.85358 13.7663 9.31673 14.0786C8.88252 14.3309 8.26041 14.6589 7.42672 15.0169C5.57145 15.8118 7.88778 17.1822 7.07303 17.6017C6.25513 18.0212 6.05619 18.5701 6.0104 18.8697C5.90934 19.5494 6.36408 20.0556 6.36408 20.0556C7.95883 19.1898 9.02147 19.7954 10.0178 20.8458ZM19.4584 18.4155C19.4584 17.7342 19.6336 17.4062 19.8215 17.3983C20.3963 17.3746 20.5194 18.1884 20.5273 18.4092C20.551 19.0574 20.0726 19.368 20.0726 19.368C20.4831 19.4027 20.8068 18.835 20.8605 18.4739C20.9379 17.9392 20.8431 17.7547 20.6537 17.3999C20.6537 17.3999 21.8552 18.5622 21.7273 19.8522C21.5821 21.3141 19.9336 22.0806 19.9336 22.0806C20.4215 22.2556 21.8347 22.1137 22.7379 20.9625C23.2368 20.3269 23.4547 19.3602 22.85 17.8351C22.3021 16.4505 21.2568 15.2787 22.3684 12.6261C23.4516 10.0397 26.3174 9.70225 28.0416 10.9308C28.1537 11.0096 28.2184 11.1058 28.2563 11.2068C28.3684 11.5127 27.5632 11.9133 27.9153 12.0978C28.1584 12.2255 28.4758 12.2587 28.7505 12.4668C29.0016 12.6577 29.0521 12.8201 29.18 12.9384C29.2763 13.0283 29.319 13.0456 29.4121 13.0456C28.6321 12.1325 28.5026 11.0916 28.3763 9.99243C27.7637 9.83472 26.7926 9.33795 25.8326 9.22598C25.231 9.15501 23.7752 9.06039 22.3147 9.77795C20.6694 10.5854 18.9294 12.1577 18.9294 15.8023C18.9278 17.3699 19.4584 18.5054 19.4584 18.4155ZM1.14721 26.9001C1.99511 26.6698 1.99511 26.0406 2.00616 25.9113C2.14195 26.091 2.18932 26.2882 2.19248 26.5437C2.56669 26.0564 2.47669 25.2111 1.55931 24.7064C1.55931 24.7064 1.61142 25.8166 0.900889 26.2078C0.160357 26.6146 0.0450934 26.8748 0.00404048 27.277C-0.0133281 27.4741 0.0245669 27.6791 0.131936 27.8369C0.228252 27.9961 0.390885 28.1081 0.544044 28.146C0.319832 27.8447 0.275621 27.1366 1.14721 26.9001ZM18.8821 11.3818C16.8041 11.5001 16.0778 10.7557 14.6583 10.0713C13.2341 9.38526 12.0104 9.88677 11.7957 10.2101C12.4573 10.2511 13.2089 10.5144 14.6347 11.4086C17.5115 13.2159 18.8821 11.3818 18.8821 11.3818ZM17.9505 6.97394C17.6489 7.05437 16.9178 7.17265 17.2589 8.85853C17.6015 10.546 18.5126 10.1375 18.7573 9.92146C18.7573 9.92146 17.5194 9.79214 17.4831 8.33021C17.4484 6.86512 19.1378 7.1348 19.1378 7.1348C19.0368 7.02125 18.4289 6.8462 17.9505 6.97394ZM36.4653 28.4172C36.0564 26.9616 34.7522 23.9936 33.8601 22.6404C32.9632 21.2857 32.5053 22.2572 32.1485 22.5632C31.79 22.8691 30.7416 24.6338 30.2821 22.3597C29.8211 20.084 27.4732 18.1143 27.4732 18.1143C27.9579 19.827 27.8284 21.0807 27.7021 22.1799C27.5758 23.2776 27.8553 23.6624 27.8553 24.3247C27.8553 24.9903 25.8658 25.4255 25.76 25.9365C25.6589 26.4475 28.7237 28.5465 31.6416 26.4427C32.5195 25.8103 33.0658 28.2642 33.3453 28.9282C33.6279 29.5937 33.0643 29.7987 33.729 30.5652C34.3937 31.3316 33.8822 31.9782 33.8822 32.4561C33.8822 32.9039 35.199 34.03 35.4406 33.7839C35.8653 33.3613 34.9037 30.8443 34.5216 29.9753C34.1379 29.1048 33.5253 26.2929 33.0927 25.5265C32.8432 25.088 31.5611 25.3987 31.5611 25.3987L31.4711 25.0581C31.4711 25.0581 31.6495 24.831 31.8137 24.6575C33.1448 23.276 33.0406 23.839 34.4206 25.5265C35.799 27.2123 34.1379 27.8794 35.338 28.7484C36.5395 29.6189 36.8727 29.8744 36.4653 28.4172ZM14.5936 5.79745C14.5936 5.79745 14.8494 5.88419 15.3389 5.89523C15.8284 5.90469 16.0715 5.4505 16.0715 5.4505C14.8794 5.33222 14.5305 4.91115 14.5305 4.91115C14.5305 4.91115 15.6673 4.8528 16.242 4.7771C16.8168 4.69982 17.8652 4.4191 17.8652 4.4191C17.8652 4.4191 17.8257 5.35903 17.8178 5.90469C17.8131 6.45036 18.5142 6.3305 18.7478 6.25638C19.0431 6.16333 19.0889 5.07516 19.1378 4.1447C19.1742 3.44133 18.6531 3.43502 18.3547 3.55961C17.9157 3.74255 17.082 4.17151 16.1805 4.44749C15.2789 4.7219 13.8673 4.52161 13.8673 4.52161L13.7899 4.81495L14.9773 5.54512L14.5936 5.79745ZM16.5468 10.2605L16.8689 10.1233C16.8689 10.1233 16.6226 9.40261 16.6052 8.76548C16.591 8.12519 16.8531 6.71057 16.8531 6.71057H16.5484C16.5484 6.71057 16.4094 7.74985 16.2294 8.65982C16.051 9.56978 15.5741 9.39157 15.3405 9.37422C15.1068 9.35688 13.2531 9.09035 13.2531 9.09035V9.36318C13.2531 9.36318 13.3699 9.37895 14.3078 9.51458C15.2457 9.65021 16.5468 10.2605 16.5468 10.2605ZM17.7026 14.2663C16.9384 14.7567 15.6815 14.5139 15.6815 14.5139C15.8505 14.7504 16.7615 15.0311 17.221 15.0232C17.6189 15.0154 17.971 14.8577 18.2836 14.5139C18.9657 13.7679 18.6878 12.5252 18.5221 12.3691C18.5236 12.3691 18.4478 13.7884 17.7026 14.2663ZM15.9341 36.394C14.1768 34.6403 14.8178 34.8169 15.9341 33.2525C16.7599 32.0933 20.791 31.0698 22.8216 30.6204L22.7821 30.4343C21.7526 30.48 20.21 30.5336 18.661 30.532C16.0068 30.5305 14.9362 29.5196 14.2478 29.6473C11.6094 30.1409 13.4852 33.1673 10.3904 32.7384C7.29409 32.311 7.39672 35.5203 7.39672 35.5203C8.27462 33.7351 9.18252 33.9858 9.882 33.9558C10.692 33.9211 11.4815 34.5189 12.6183 33.5632C12.8678 33.355 13.9983 31.524 13.8357 32.4387C13.741 32.9733 13.2783 33.5837 12.9089 34.0032C12.6452 34.3028 12.492 34.5315 13.0289 34.8343C13.2199 34.9431 13.471 35.0882 13.7962 35.2758C15.0499 35.9966 14.8415 36.815 14.0252 36.774C13.4441 36.7425 12.7573 36.4571 12.181 36.3971C11.9473 36.3735 11.682 36.4697 12.0515 36.6463C12.2457 36.7393 12.4652 36.8734 12.6578 37.0642C13.5768 37.9837 12.4778 37.6209 15.1099 37.479C15.6705 37.4474 16.0684 37.3954 16.351 37.3371C17.3978 37.1084 16.1647 36.6227 15.9341 36.394ZM29.4705 37.9237C29.259 37.5941 29.0884 37.132 28.8911 36.7188C28.4711 35.8404 28.8832 36.0092 28.6242 35.5029C28.3337 34.9431 28.1884 35.4919 27.4574 34.3722C27.3137 34.1498 27.0232 34.2476 26.9884 34.7838C26.9505 35.3184 27.8474 35.8231 28.2563 37.1194C28.6684 38.4189 29.0063 38.5687 28.6716 39.3652C28.3416 40.1631 26.7137 40.1143 26.7137 40.1143C27.9848 41.4374 30.5695 39.6333 29.4705 37.9237Z" fill="white"/>
    <path fill-rule="evenodd" clip-rule="evenodd" d="M43.1598 44.0273L42.6309 43.8349L58.2089 0.973633L58.7362 1.16603L43.1598 44.0273Z" fill="white"/>
</svg>
