<svg width="21" height="21" viewBox="0 0 21 21" fill="none" xmlns="http://www.w3.org/2000/svg">
    <circle cx="10.814" cy="10.5" r="10.0091" fill="#EF8C02"/>
    <path d="M10.0924 13.5056C8.95241 13.3867 7.9245 13.1059 7.04445 12.4176C6.93526 12.332 6.82252 12.2494 6.72287 12.1538C6.33767 11.7838 6.29886 11.3601 6.60366 10.9235C6.86441 10.5498 7.30212 10.4499 7.75709 10.6644C7.84518 10.706 7.92912 10.7579 8.00952 10.8137C9.64964 11.9406 11.9027 11.9717 13.549 10.8643C13.7121 10.7393 13.8865 10.6373 14.0885 10.5853C14.4814 10.4844 14.8478 10.6287 15.0587 10.9725C15.2996 11.365 15.2965 11.7482 14.9997 12.053C14.5444 12.5203 13.9969 12.8584 13.3885 13.0943C12.8133 13.3174 12.1832 13.4296 11.5596 13.5042C11.6537 13.6066 11.6981 13.657 11.7569 13.7161C12.6037 14.5669 13.4541 15.4141 14.2982 16.2675C14.5857 16.5583 14.6458 16.9189 14.4874 17.2571C14.3143 17.6267 13.9268 17.8699 13.5469 17.8439C13.3061 17.8273 13.1184 17.7074 12.9516 17.5394C12.3126 16.8964 11.6616 16.2652 11.0355 15.61C10.8533 15.4195 10.7656 15.4556 10.6048 15.621C9.96198 16.2828 9.30865 16.9344 8.65146 17.5824C8.35636 17.8733 8.00521 17.9257 7.66298 17.7595C7.2992 17.5831 7.06771 17.2118 7.08558 16.8386C7.0979 16.5862 7.22203 16.3934 7.3953 16.2204C8.23331 15.3836 9.069 14.5447 9.905 13.7066C9.96029 13.6508 10.0119 13.5917 10.0924 13.5056Z" fill="white"/>
    <path d="M10.7871 10.5907C8.7533 10.5838 7.08562 8.89774 7.09747 6.86072C7.10918 4.80121 8.77795 3.14153 10.8318 3.14723C12.8897 3.15278 14.5415 4.83633 14.5312 6.91724C14.5208 8.9501 12.8415 10.5978 10.7871 10.5907ZM12.6354 6.86565C12.6319 5.85422 11.8264 5.04902 10.817 5.0481C9.79908 5.04702 8.98633 5.86685 8.99419 6.88752C9.00173 7.89509 9.81417 8.69459 10.8264 8.69089C11.8355 8.68735 12.6388 7.87692 12.6354 6.86565Z" fill="white"/>
</svg>
