<svg xmlns="http://www.w3.org/2000/svg" display="none">

    <symbol id="arrow-left" viewBox="0 0 11 20">
        <path d="M10.1109 0.889068L1 9.99994L10.1109 19.1108" stroke-width="0.938462"/>
    </symbol>

    <symbol id="arrow-right" viewBox="0 0 11 20">
        <path d="M0.630826 19.1118L9.7417 10.001L0.630827 0.890103" stroke-width="0.938462"/>
    </symbol>

    <symbol id="instagram" viewBox="0 0 13 13">
        <path fill-rule="evenodd" clip-rule="evenodd"
              d="M3.75038 0.0385513C4.43101 0.00757732 4.64849 0 6.38144 0H6.37944C8.11292 0 8.32961 0.00757732 9.01024 0.0385513C9.68954 0.0696582 10.1535 0.177203 10.5603 0.334998C10.9803 0.497843 11.3353 0.715858 11.6902 1.0708C12.0452 1.42547 12.2632 1.78147 12.4267 2.20115C12.5835 2.60687 12.6912 3.07054 12.7231 3.74985C12.7537 4.43047 12.7617 4.64796 12.7617 6.38091C12.7617 8.11385 12.7537 8.3308 12.7231 9.01143C12.6912 9.69047 12.5835 10.1543 12.4267 10.5601C12.2632 10.9797 12.0452 11.3357 11.6902 11.6903C11.3357 12.0453 10.9802 12.2638 10.5607 12.4268C10.1547 12.5846 9.69047 12.6922 9.01117 12.7233C8.33054 12.7542 8.11372 12.7618 6.38064 12.7618C4.64782 12.7618 4.43048 12.7542 3.74985 12.7233C3.07068 12.6922 2.60687 12.5846 2.20088 12.4268C1.78147 12.2638 1.42547 12.0453 1.07093 11.6903C0.716124 11.3357 0.498109 10.9797 0.334998 10.56C0.177336 10.1543 0.0697911 9.6906 0.0385513 9.0113C0.00771025 8.33067 0 8.11385 0 6.38091C0 4.64796 0.00797613 4.43034 0.0384184 3.74971C0.0689935 3.07068 0.176671 2.60687 0.334865 2.20101C0.498375 1.78147 0.71639 1.42547 1.07133 1.0708C1.426 0.715991 1.782 0.497976 2.20168 0.334998C2.6074 0.177203 3.07108 0.0696582 3.75038 0.0385513ZM6.16885 1.14997H6.16874H6.16862C6.03968 1.14991 5.92019 1.14986 5.8091 1.15003V1.14844C4.61986 1.14977 4.39175 1.15774 3.80311 1.18433C3.18097 1.21291 2.84318 1.3166 2.61825 1.40434C2.32048 1.52026 2.10778 1.65851 1.88445 1.88184C1.66112 2.10517 1.5226 2.31787 1.40695 2.61565C1.31961 2.84057 1.21565 3.17823 1.1872 3.80037C1.15663 4.47302 1.15051 4.67402 1.15051 6.37799C1.15051 8.08195 1.15663 8.28402 1.1872 8.95667C1.21552 9.57881 1.31961 9.91647 1.40695 10.1411C1.52287 10.439 1.66112 10.6512 1.88445 10.8745C2.10778 11.0979 2.32048 11.2361 2.61825 11.3518C2.84331 11.4391 3.18097 11.5431 3.80311 11.5718C4.47576 11.6024 4.67769 11.609 6.38153 11.609C8.08523 11.609 8.28729 11.6024 8.95994 11.5718C9.58208 11.5433 9.92 11.4396 10.1447 11.3519C10.4426 11.2362 10.6546 11.098 10.8779 10.8747C11.1013 10.6515 11.2398 10.4394 11.3554 10.1417C11.4428 9.917 11.5467 9.57934 11.5752 8.9572C11.6058 8.28455 11.6124 8.08249 11.6124 6.37958C11.6124 4.67668 11.6058 4.47462 11.5752 3.80196C11.5469 3.17983 11.4428 2.84217 11.3554 2.61751C11.2395 2.31973 11.1013 2.10704 10.8779 1.8837C10.6547 1.66037 10.4424 1.52212 10.1447 1.40647C9.91974 1.31913 9.58208 1.21517 8.95994 1.18672C8.28716 1.15615 8.08523 1.15003 6.38153 1.15003L6.16885 1.14997ZM9.78762 2.20925C9.36489 2.20925 9.02191 2.55183 9.02191 2.97469C9.02191 3.39743 9.36489 3.7404 9.78762 3.7404C10.2104 3.7404 10.5533 3.39743 10.5533 2.97469C10.5533 2.55196 10.2104 2.20898 9.78762 2.20898V2.20925ZM6.38134 3.10449C4.57175 3.10456 3.10461 4.57175 3.10461 6.38135C3.10461 8.191 4.57182 9.65755 6.38147 9.65755C8.19113 9.65755 9.6578 8.191 9.6578 6.38135C9.6578 4.5717 8.19099 3.10449 6.38134 3.10449ZM6.38148 4.25391C7.5561 4.25391 8.50845 5.20612 8.50845 6.38087C8.50845 7.55549 7.5561 8.50784 6.38148 8.50784C5.20673 8.50784 4.25452 7.55549 4.25452 6.38087C4.25452 5.20612 5.20673 4.25391 6.38148 4.25391Z"/>
    </symbol>

    <symbol id="fb" viewBox="0 0 7 14">
        <path d="M4.03865 13.0167V6.50756H5.83544L6.07356 4.2645H4.03865L4.0417 3.14182C4.0417 2.55679 4.09729 2.24332 4.93755 2.24332H6.06084V0H4.26379C2.10525 0 1.3455 1.08813 1.3455 2.91802V4.26475H0V6.50782H1.3455V13.0167H4.03865Z"/>
    </symbol>

    <symbol id="telegram" viewBox="0 0 12 11">
        <path d="M11.4595 0.419434C11.8293 0.419434 12.1082 0.74381 11.959 1.34715L10.149 9.87826C10.0225 10.4848 9.65593 10.6308 9.1499 10.3486L4.83245 7.15998C4.81571 7.14797 4.80207 7.13214 4.79266 7.11381C4.78325 7.09547 4.77834 7.07516 4.77834 7.05456C4.77834 7.03395 4.78325 7.01364 4.79266 6.99531C4.80207 6.97698 4.81571 6.96115 4.83245 6.94914L9.81812 2.44679C10.0452 2.24567 9.76946 2.14836 9.47104 2.33001L3.21381 6.27768C3.19483 6.29005 3.17329 6.29794 3.15081 6.30075C3.12832 6.30356 3.1055 6.30122 3.08406 6.29389L0.427414 5.45376C-0.162951 5.28184 -0.162951 4.87637 0.560409 4.58767L11.1902 0.487553C11.2745 0.44711 11.3661 0.423949 11.4595 0.419434Z"/>
    </symbol>

    <symbol id="vk" viewBox="0 0 13 8">
        <path d="M7.00669 7.11673C7.00669 7.11673 7.23701 7.09161 7.35498 6.96723C7.46296 6.85327 7.45922 6.63822 7.45922 6.63822C7.45922 6.63822 7.44486 5.63403 7.91986 5.48576C8.38799 5.33994 8.98907 6.45687 9.62697 6.88636C10.1088 7.21108 10.4746 7.14001 10.4746 7.14001L12.1792 7.11673C12.1792 7.11673 13.0705 7.06281 12.648 6.37477C12.613 6.3184 12.4014 5.86562 11.3809 4.93556C10.3117 3.962 10.4553 4.11946 11.7423 2.43519C12.5263 1.40955 12.8396 0.783383 12.7416 0.515639C12.6486 0.259535 12.0719 0.327544 12.0719 0.327544L10.1532 0.339185C10.1532 0.339185 10.0108 0.320191 9.90536 0.382073C9.80237 0.442729 9.73558 0.58426 9.73558 0.58426C9.73558 0.58426 9.43223 1.37769 9.02714 2.05287C8.17265 3.47676 7.83122 3.55212 7.69141 3.46389C7.36622 3.25741 7.44736 2.63554 7.44736 2.19379C7.44736 0.813404 7.66082 0.238091 7.03228 0.0892083C6.82381 0.0395806 6.67026 0.0071082 6.13659 0.001594C5.45187 -0.00514556 4.87264 0.00404476 4.54432 0.161505C4.32586 0.266275 4.15734 0.500321 4.26032 0.5138C4.38703 0.530343 4.67415 0.589774 4.82645 0.793186C5.02307 1.05603 5.0162 1.64543 5.0162 1.64543C5.0162 1.64543 5.12917 3.27028 4.75217 3.47185C4.49377 3.61032 4.13923 3.32787 3.37712 2.03572C2.98701 1.37401 2.6924 0.642465 2.6924 0.642465C2.6924 0.642465 2.6356 0.505836 2.53386 0.432313C2.4109 0.343473 2.23925 0.315903 2.23925 0.315903L0.416036 0.327544C0.416036 0.327544 0.142024 0.334896 0.0415315 0.451919C-0.0477254 0.555463 0.0346656 0.770516 0.0346656 0.770516C0.0346656 0.770516 1.46215 4.04901 3.07876 5.70142C4.56118 7.21599 6.24395 7.11673 6.24395 7.11673H7.00669Z"/>
    </symbol>

    <symbol id="search" viewBox="0 0 14 13">
        <path d="M4.621 8.93193C6.44942 10.7604 9.41387 10.7604 11.2423 8.93193C13.0707 7.10351 13.0707 4.13906 11.2423 2.31064C9.41387 0.482226 6.44942 0.482226 4.621 2.31064C2.79258 4.13906 2.79258 7.10351 4.621 8.93193ZM4.621 8.93193L1.31036 12.2426"
              stroke-linecap="round"/>
    </symbol>

</svg>