<svg width="18" height="15" viewBox="0 0 18 15" fill="none" xmlns="http://www.w3.org/2000/svg">
    <path fill-rule="evenodd" clip-rule="evenodd" d="M1.66483 6.52329C6.21707 4.53995 9.25262 3.23241 10.7715 2.60067C15.1081 0.79693 16.0092 0.483601 16.5965 0.473255C16.7257 0.470979 17.0145 0.502993 17.2016 0.654806C17.3596 0.782994 17.403 0.956158 17.4238 1.07769C17.4446 1.19923 17.4705 1.47609 17.45 1.69243C17.2149 4.16161 16.1981 10.1537 15.6808 12.9192C15.4619 14.0894 15.0309 14.4818 14.6136 14.5202C13.7068 14.6036 13.0182 13.9209 12.1399 13.3451C10.7655 12.4442 9.98908 11.8834 8.65502 11.0043C7.11328 9.98827 8.11272 9.42987 8.99136 8.51728C9.2213 8.27845 13.2168 4.64425 13.2941 4.31458C13.3038 4.27334 13.3128 4.11965 13.2215 4.03849C13.1301 3.95734 12.9954 3.98509 12.8981 4.00716C12.7603 4.03845 10.5647 5.48964 6.31142 8.36074C5.68822 8.78868 5.12374 8.99719 4.61798 8.98626C4.06043 8.97422 2.98791 8.67101 2.19061 8.41184C1.21269 8.09396 0.435452 7.92589 0.503132 7.38602C0.538384 7.10483 0.925616 6.81725 1.66483 6.52329Z" fill="#2AAAED"/>
</svg>
