<svg width="19" height="15" viewBox="0 0 19 15" fill="none" xmlns="http://www.w3.org/2000/svg">
    <path fill-rule="evenodd" clip-rule="evenodd" d="M18.7132 1.88765C18.0477 2.18284 17.3311 2.38243 16.5804 2.47278C17.3471 2.01266 17.9359 1.28571 18.2128 0.419052C17.4951 0.844503 16.7008 1.15335 15.8542 1.31933C15.177 0.597636 14.2123 0.146973 13.1443 0.146973C11.0935 0.146973 9.43025 1.80886 9.43025 3.85943C9.43025 4.15147 9.46433 4.43405 9.52715 4.70613C6.44134 4.55171 3.70585 3.07261 1.87438 0.826645C1.55387 1.375 1.37179 2.01266 1.37179 2.69338C1.37179 3.98129 2.02771 5.11793 3.02331 5.78289C2.41424 5.76399 1.84137 5.59696 1.34198 5.31857C1.34198 5.33433 1.34198 5.35009 1.34198 5.36585C1.34198 7.1643 2.62081 8.66441 4.32024 9.00582C4.00825 9.09091 3.68136 9.13608 3.34168 9.13608C3.10317 9.13608 2.86997 9.11297 2.64317 9.06885C3.11594 10.5438 4.48742 11.6174 6.11231 11.6478C4.84093 12.6426 3.23946 13.2362 1.49957 13.2362C1.20036 13.2362 0.90434 13.2194 0.613647 13.1847C2.25665 14.2384 4.20844 14.8529 6.30611 14.8529C13.1358 14.8529 16.8711 9.19596 16.8711 4.29014C16.8711 4.12836 16.8669 3.96973 16.8605 3.81006C17.5856 3.28691 18.216 2.63245 18.7132 1.8887V1.88765Z" fill="#2AA3EF"/>
</svg>
