<svg width="22" height="13" viewBox="0 0 22 13" fill="none" xmlns="http://www.w3.org/2000/svg">
    <path d="M18.1767 8.11352C18.8521 8.79327 19.565 9.43281 20.1708 10.1811C20.4384 10.5136 20.6917 10.8568 20.8856 11.2427C21.1602 11.7913 20.9114 12.395 20.4342 12.4277L17.4678 12.4263C16.7028 12.4918 16.0924 12.1743 15.5792 11.6351C15.1685 11.2039 14.7882 10.7449 14.3933 10.2992C14.2314 10.117 14.0619 9.94554 13.8595 9.81003C13.4545 9.53908 13.103 9.62204 12.8716 10.0574C12.6359 10.5002 12.5825 10.9905 12.5593 11.484C12.5275 12.204 12.3164 12.3933 11.6147 12.4263C10.1152 12.4992 8.69208 12.2653 7.37005 11.4856C6.20449 10.7982 5.30066 9.82775 4.51397 8.72913C2.98226 6.58989 1.80929 4.23921 0.755057 1.82268C0.517758 1.27823 0.6913 0.985974 1.27408 0.975629C2.2418 0.956251 3.20939 0.957631 4.17826 0.97425C4.57157 0.980181 4.83195 1.21272 4.98381 1.59573C5.50738 2.92275 6.14803 4.18529 6.95218 5.35556C7.16633 5.66712 7.3847 5.97869 7.69565 6.19799C8.03966 6.4408 8.30158 6.36032 8.46341 5.96531C8.5661 5.71484 8.61106 5.44507 8.63421 5.17681C8.71088 4.2539 8.72098 3.33258 8.58651 2.41292C8.50395 1.83895 8.19032 1.46739 7.63471 1.35878C7.35118 1.3034 7.39339 1.19465 7.53068 1.02783C7.76911 0.740127 7.99336 0.561035 8.4404 0.561035H11.7929C12.3207 0.668408 12.4379 0.912806 12.5101 1.46022L12.513 5.2988C12.5073 5.51072 12.6157 6.13958 12.986 6.27984C13.2824 6.3797 13.4777 6.1353 13.6555 5.94159C14.4582 5.06344 15.0311 4.02564 15.5429 2.95102C15.77 2.4785 15.9653 1.98777 16.1546 1.49746C16.2948 1.13362 16.5148 0.954596 16.9124 0.962527L20.139 0.965492C20.2347 0.965492 20.3315 0.96694 20.4241 0.983284C20.9678 1.0788 21.1168 1.31988 20.9489 1.86716C20.6843 2.72579 20.1695 3.44133 19.6662 4.16018C19.1281 4.92765 18.5526 5.66885 18.019 6.44087C17.5287 7.14586 17.5677 7.50121 18.1767 8.11352Z" fill="#4C77A6"/>
</svg>
