<svg width="21" height="21" viewBox="0 0 21 21" fill="none" xmlns="http://www.w3.org/2000/svg">
    <path fill-rule="evenodd" clip-rule="evenodd" d="M10.5134 0.490967C4.98104 0.490967 0.504272 4.96525 0.504272 10.5001C0.504272 12.5874 1.14082 14.5181 2.2715 16.1771C2.31359 16.2394 2.34107 16.3105 2.3519 16.385C2.36273 16.4594 2.35663 16.5354 2.33406 16.6072L1.31751 20.0087L4.64866 18.8592C4.71986 18.8355 4.79549 18.8281 4.86993 18.8376C4.94438 18.847 5.01574 18.8731 5.07874 18.9139C6.63904 19.9264 8.50693 20.5091 10.5134 20.5091C16.0483 20.5091 20.5224 16.035 20.5224 10.5001C20.5224 4.96509 16.0483 0.490967 10.5134 0.490967ZM6.41589 4.8543L8.23785 7.86486L7.47935 8.61554C7.40213 8.69346 7.35265 8.79458 7.33852 8.90337C7.32439 9.01216 7.3464 9.12258 7.40116 9.21764C8.55866 11.2221 9.93012 12.7815 11.8505 13.6279C11.9425 13.6688 12.0447 13.6809 12.1438 13.6628C12.2428 13.6447 12.3341 13.5971 12.4057 13.5262L13.2111 12.7208L16.1513 14.5584C15.8257 15.2912 15.4013 15.7274 14.9158 15.9816C14.3534 16.2761 13.6665 16.3318 12.8827 16.1693C11.315 15.8442 9.42133 14.6121 7.87815 13.0336C6.33497 11.4551 5.14077 9.53575 4.83633 7.97431C4.68411 7.1936 4.75136 6.52124 5.03964 5.98816C5.28786 5.52917 5.70949 5.13621 6.41589 4.8543Z" fill="#31CC63"/>
</svg>
